<svg width="39" height="39" viewBox="0 0 39 39" fill="none" xmlns="http://www.w3.org/2000/svg">
<path d="M19.1979 38.3958C29.8006 38.3958 38.3958 29.8006 38.3958 19.1979C38.3958 8.59519 29.8006 0 19.1979 0C8.59519 0 0 8.59519 0 19.1979C0 29.8006 8.59519 38.3958 19.1979 38.3958Z" fill="#F7931A"/>
<path d="M27.8238 16.8221C28.2005 14.3072 26.2844 12.9549 23.6662 12.0526L24.5157 8.645L22.4424 8.12906L21.6145 11.4467C21.0697 11.3099 20.5106 11.1827 19.9526 11.0555L20.7866 7.7163L18.7132 7.19916L17.8637 10.6056C17.4125 10.5024 16.9686 10.4016 16.539 10.2936L16.5414 10.2828L13.6809 9.5689L13.129 11.7839C13.129 11.7839 14.6684 12.1366 14.636 12.1582C15.4759 12.3682 15.6271 12.9237 15.6019 13.3653L14.6348 17.2469C14.6924 17.2613 14.7668 17.2829 14.8508 17.3153L14.6312 17.2613L13.2754 22.6991C13.1722 22.9534 12.9118 23.3362 12.3239 23.191C12.3455 23.221 10.8168 22.8155 10.8168 22.8155L9.78735 25.1888L12.4871 25.8619C12.9886 25.9879 13.4806 26.1199 13.9641 26.2435L13.1062 29.6895L15.1784 30.2054L16.0279 26.7978C16.5942 26.9502 17.1438 27.0918 17.6813 27.2262L16.8342 30.6194L18.9076 31.1353L19.7655 27.6965C23.3027 28.366 25.9616 28.0961 27.0811 24.8972C27.9834 22.3223 27.0367 20.8357 25.1757 19.8674C26.5315 19.5554 27.5514 18.6639 27.8238 16.8221ZM23.0843 23.467C22.4448 26.0431 18.1072 24.6501 16.701 24.3009L17.8409 19.7354C19.2471 20.087 23.755 20.7817 23.0843 23.467ZM23.7262 16.7849C23.1419 19.1283 19.5327 17.9368 18.3628 17.6452L19.3947 13.5057C20.5646 13.7972 24.3358 14.3408 23.7262 16.7849Z" fill="white"/>
</svg>
