<svg width="214" height="137" viewBox="0 0 214 137" fill="none" xmlns="http://www.w3.org/2000/svg">
<path d="M63.5545 38.7771H21.9556V10.3207H63.5545V38.7771ZM22.284 38.4486H63.226V10.6492H22.284V38.4486Z" fill="#EBEBEB"/>
<path d="M25.2076 12.1536C25.2076 12.3174 25.159 12.4774 25.068 12.6135C24.9771 12.7497 24.8478 12.8558 24.6966 12.9184C24.5453 12.9811 24.3789 12.9975 24.2183 12.9655C24.0577 12.9336 23.9102 12.8547 23.7945 12.739C23.6787 12.6232 23.5998 12.4757 23.5679 12.3151C23.536 12.1546 23.5524 11.9881 23.615 11.8369C23.6777 11.6856 23.7838 11.5563 23.9199 11.4654C24.056 11.3744 24.2161 11.3259 24.3798 11.3259C24.5993 11.3259 24.8099 11.4131 24.9651 11.5683C25.1203 11.7236 25.2076 11.9341 25.2076 12.1536Z" fill="#A6A6A6"/>
<path d="M28.5877 12.1536C28.5877 12.3174 28.5391 12.4774 28.4482 12.6135C28.3572 12.7497 28.2279 12.8558 28.0767 12.9184C27.9254 12.9811 27.759 12.9975 27.5984 12.9655C27.4378 12.9336 27.2903 12.8547 27.1746 12.739C27.0588 12.6232 26.98 12.4757 26.948 12.3151C26.9161 12.1546 26.9325 11.9881 26.9951 11.8369C27.0578 11.6856 27.1639 11.5563 27.3 11.4654C27.4361 11.3744 27.5962 11.3259 27.7599 11.3259C27.9794 11.3259 28.19 11.4131 28.3452 11.5683C28.5005 11.7236 28.5877 11.9341 28.5877 12.1536Z" fill="#EBEBEB"/>
<path d="M31.971 12.1537C31.9716 12.3183 31.9233 12.4794 31.8323 12.6166C31.7412 12.7538 31.6114 12.8608 31.4594 12.9241C31.3075 12.9874 31.1401 13.0041 30.9786 12.9722C30.8171 12.9402 30.6687 12.861 30.5522 12.7446C30.4358 12.6282 30.3566 12.4798 30.3246 12.3183C30.2927 12.1567 30.3094 11.9894 30.3727 11.8374C30.436 11.6854 30.5431 11.5556 30.6802 11.4646C30.8174 11.3735 30.9785 11.3252 31.1432 11.3259C31.3627 11.3259 31.5733 11.4131 31.7285 11.5683C31.8837 11.7236 31.971 11.9341 31.971 12.1537Z" fill="#9232E6"/>
<path d="M63.3903 13.6088H22.1199V13.9373H63.3903V13.6088Z" fill="#EBEBEB"/>
<path d="M199.648 113.313H199.32V71.9834L208.1 60.0003V37.6044H208.428V60.1054L199.648 72.0918V113.313Z" fill="#EBEBEB"/>
<path d="M208.264 37.7818C208.077 37.7818 207.894 37.7263 207.738 37.6222C207.582 37.5181 207.461 37.3701 207.39 37.1971C207.318 37.024 207.3 36.8336 207.336 36.65C207.373 36.4664 207.463 36.2979 207.596 36.1657C207.729 36.0335 207.898 35.9437 208.081 35.9075C208.265 35.8714 208.455 35.8906 208.628 35.9627C208.801 36.0348 208.949 36.1566 209.052 36.3126C209.156 36.4686 209.211 36.6518 209.21 36.8391C209.21 36.9632 209.185 37.086 209.138 37.2006C209.09 37.3152 209.021 37.4193 208.933 37.5069C208.845 37.5944 208.74 37.6638 208.626 37.711C208.511 37.7582 208.388 37.7823 208.264 37.7818ZM208.264 36.2215C208.142 36.2215 208.022 36.2578 207.921 36.3256C207.819 36.3935 207.74 36.4899 207.693 36.6028C207.647 36.7156 207.634 36.8398 207.658 36.9596C207.682 37.0793 207.741 37.1894 207.827 37.2757C207.914 37.3621 208.024 37.4209 208.143 37.4448C208.263 37.4686 208.387 37.4564 208.5 37.4096C208.613 37.3629 208.71 37.2837 208.777 37.1822C208.845 37.0806 208.881 36.9612 208.881 36.8391C208.881 36.6753 208.816 36.5182 208.701 36.4024C208.585 36.2866 208.428 36.2215 208.264 36.2215Z" fill="#EBEBEB"/>
<path d="M201.911 113.313H201.583V73.432L201.612 73.386L210.363 61.4457V45.8165H210.691V61.5541L201.911 73.5371V113.313Z" fill="#EBEBEB"/>
<path d="M210.527 45.9939C210.34 45.9945 210.157 45.9395 210.001 45.8358C209.845 45.7321 209.723 45.5844 209.651 45.4114C209.579 45.2384 209.56 45.0479 209.596 44.8641C209.633 44.6803 209.723 44.5114 209.855 44.3789C209.988 44.2464 210.157 44.1562 210.34 44.1198C210.524 44.0834 210.715 44.1024 210.888 44.1745C211.061 44.2465 211.208 44.3682 211.312 44.5243C211.416 44.6804 211.471 44.8637 211.47 45.0511C211.469 45.3009 211.37 45.5402 211.193 45.7168C211.016 45.8934 210.777 45.993 210.527 45.9939ZM210.527 44.4336C210.405 44.4329 210.285 44.4686 210.183 44.5361C210.081 44.6035 210.002 44.6997 209.955 44.8125C209.907 44.9253 209.895 45.0496 209.918 45.1696C209.942 45.2896 210 45.3999 210.086 45.4866C210.173 45.5733 210.283 45.6325 210.402 45.6566C210.522 45.6806 210.647 45.6686 210.76 45.622C210.873 45.5753 210.969 45.4962 211.037 45.3946C211.105 45.2929 211.142 45.1734 211.142 45.0511C211.142 44.8879 211.077 44.7313 210.962 44.6156C210.847 44.4999 210.691 44.4344 210.527 44.4336Z" fill="#EBEBEB"/>
<path d="M197.47 58.6503H197.142V113.313H197.47V58.6503Z" fill="#EBEBEB"/>
<path d="M197.306 58.8145C197.118 58.8152 196.935 58.7601 196.779 58.6564C196.623 58.5527 196.501 58.405 196.429 58.232C196.357 58.059 196.338 57.8685 196.374 57.6847C196.411 57.5009 196.501 57.332 196.634 57.1995C196.766 57.067 196.935 56.9769 197.119 56.9405C197.303 56.9041 197.493 56.9231 197.666 56.9951C197.839 57.0671 197.987 57.1889 198.09 57.3449C198.194 57.501 198.249 57.6844 198.248 57.8718C198.248 58.1215 198.148 58.3608 197.971 58.5374C197.795 58.714 197.556 58.8136 197.306 58.8145ZM197.306 57.2542C197.183 57.2536 197.064 57.2892 196.962 57.3567C196.86 57.4241 196.78 57.5204 196.733 57.6331C196.686 57.7459 196.673 57.8702 196.696 57.9902C196.72 58.1102 196.778 58.2206 196.865 58.3073C196.951 58.3939 197.061 58.4531 197.181 58.4772C197.301 58.5013 197.425 58.4892 197.538 58.4426C197.651 58.396 197.748 58.3168 197.816 58.2152C197.884 58.1136 197.92 57.994 197.92 57.8718C197.92 57.7085 197.855 57.552 197.74 57.4362C197.625 57.3205 197.469 57.2551 197.306 57.2542Z" fill="#EBEBEB"/>
<path d="M195.371 113.313H195.043V85.5727L189.084 74.3287V54.1337H189.412V74.2499L195.371 85.4938V113.313Z" fill="#EBEBEB"/>
<path d="M189.245 54.2979C189.058 54.2979 188.875 54.2424 188.719 54.1385C188.564 54.0345 188.442 53.8868 188.371 53.7139C188.299 53.541 188.281 53.3508 188.317 53.1673C188.354 52.9838 188.444 52.8152 188.576 52.6829C188.708 52.5506 188.877 52.4605 189.06 52.424C189.244 52.3875 189.434 52.4062 189.607 52.4778C189.78 52.5494 189.928 52.6707 190.031 52.8263C190.135 52.9818 190.191 53.1648 190.191 53.3519C190.191 53.6028 190.091 53.8434 189.914 54.0208C189.736 54.1982 189.496 54.2979 189.245 54.2979ZM189.245 52.7376C189.123 52.7376 189.003 52.7739 188.901 52.8419C188.8 52.9099 188.721 53.0066 188.674 53.1196C188.627 53.2326 188.615 53.357 188.639 53.4768C188.664 53.5967 188.723 53.7067 188.809 53.793C188.896 53.8792 189.006 53.9378 189.126 53.9612C189.246 53.9847 189.371 53.972 189.483 53.9247C189.596 53.8775 189.692 53.7978 189.76 53.6958C189.827 53.5939 189.863 53.4741 189.862 53.3519C189.862 53.2709 189.846 53.1908 189.815 53.116C189.784 53.0413 189.739 52.9734 189.681 52.9163C189.624 52.8593 189.556 52.8141 189.481 52.7834C189.406 52.7527 189.326 52.7372 189.245 52.7376Z" fill="#EBEBEB"/>
<path d="M193.285 113.313H192.957V86.7782L185.931 74.3484V61.0285H186.259V74.2597L193.285 86.6928V113.313Z" fill="#EBEBEB"/>
<path d="M186.095 61.1927C185.908 61.1934 185.724 61.1384 185.568 61.0347C185.412 60.931 185.29 60.7832 185.218 60.6102C185.146 60.4372 185.127 60.2468 185.164 60.0629C185.2 59.8791 185.29 59.7103 185.423 59.5778C185.555 59.4453 185.724 59.3551 185.908 59.3187C186.092 59.2823 186.282 59.3013 186.455 59.3733C186.628 59.4453 186.776 59.5671 186.88 59.7232C186.983 59.8792 187.038 60.0626 187.038 60.25C187.037 60.4997 186.937 60.739 186.761 60.9156C186.584 61.0923 186.345 61.1918 186.095 61.1927ZM186.095 59.6324C185.973 59.6318 185.853 59.6674 185.751 59.7349C185.649 59.8024 185.569 59.8986 185.522 60.0114C185.475 60.1241 185.462 60.2484 185.486 60.3684C185.509 60.4884 185.568 60.5988 185.654 60.6855C185.74 60.7722 185.85 60.8313 185.97 60.8554C186.09 60.8795 186.214 60.8675 186.327 60.8208C186.44 60.7742 186.537 60.695 186.605 60.5934C186.673 60.4918 186.709 60.3723 186.709 60.25C186.709 60.0868 186.645 59.9302 186.53 59.8145C186.414 59.6987 186.258 59.6333 186.095 59.6324Z" fill="#EBEBEB"/>
<path d="M14.9064 113.313H14.5779V91.7974L5.79761 79.8144V67.1678H6.12609V79.706L14.9064 91.6923V113.313Z" fill="#EBEBEB"/>
<path d="M5.962 67.3452C5.77462 67.3458 5.59126 67.2908 5.43519 67.1871C5.27911 67.0834 5.15735 66.9357 5.08534 66.7627C5.01333 66.5897 4.99432 66.3992 5.03071 66.2154C5.06711 66.0316 5.15728 65.8627 5.28978 65.7302C5.42228 65.5977 5.59115 65.5075 5.77497 65.4712C5.95879 65.4348 6.14927 65.4538 6.32227 65.5258C6.49527 65.5978 6.64298 65.7195 6.74668 65.8756C6.85038 66.0317 6.9054 66.2151 6.90475 66.4024C6.90475 66.6525 6.80542 66.8923 6.62862 67.0691C6.45183 67.2459 6.21204 67.3452 5.962 67.3452ZM5.962 65.7849C5.83973 65.7842 5.72001 65.8199 5.61802 65.8874C5.51604 65.9548 5.43637 66.051 5.38913 66.1638C5.34188 66.2766 5.32919 66.4009 5.35264 66.5209C5.3761 66.6409 5.43465 66.7512 5.52089 66.8379C5.60712 66.9246 5.71715 66.9838 5.83703 67.0079C5.95691 67.032 6.08125 67.0199 6.19428 66.9733C6.30731 66.9266 6.40395 66.8475 6.47196 66.7459C6.53996 66.6442 6.57626 66.5247 6.57626 66.4024C6.57627 66.2392 6.51166 66.0826 6.39655 65.9669C6.28145 65.8512 6.12522 65.7858 5.962 65.7849Z" fill="#EBEBEB"/>
<path d="M12.643 113.313H12.3145V93.246L3.53418 81.263V75.3799H3.86266V81.1546L12.643 93.1409V113.313Z" fill="#EBEBEB"/>
<path d="M3.7053 75.5572C3.51805 75.5572 3.33502 75.5017 3.17938 75.3976C3.02373 75.2935 2.90248 75.1455 2.83097 74.9725C2.75947 74.7994 2.74093 74.609 2.7777 74.4254C2.81447 74.2418 2.90489 74.0733 3.03753 73.9411C3.17016 73.8089 3.33903 73.7191 3.52276 73.683C3.70649 73.6468 3.89681 73.666 4.06961 73.7381C4.24242 73.8102 4.38994 73.932 4.49349 74.088C4.59705 74.244 4.65198 74.4272 4.65133 74.6145C4.65046 74.8648 4.55041 75.1046 4.37309 75.2813C4.19577 75.458 3.95563 75.5572 3.7053 75.5572ZM3.7053 73.997C3.58316 73.997 3.46377 74.0332 3.36221 74.101C3.26066 74.1689 3.1815 74.2653 3.13476 74.3782C3.08802 74.491 3.07579 74.6152 3.09962 74.735C3.12345 74.8548 3.18226 74.9648 3.26863 75.0512C3.35499 75.1375 3.46503 75.1963 3.58482 75.2202C3.70461 75.244 3.82878 75.2318 3.94162 75.185C4.05447 75.1383 4.15091 75.0591 4.21877 74.9576C4.28663 74.856 4.32285 74.7366 4.32285 74.6145C4.32285 74.4507 4.25778 74.2936 4.14197 74.1778C4.02616 74.062 3.86908 73.997 3.7053 73.997Z" fill="#EBEBEB"/>
<path d="M17.0843 78.3592H16.7559V113.313H17.0843V78.3592Z" fill="#EBEBEB"/>
<path d="M16.9199 78.5234C16.7327 78.5234 16.5496 78.4679 16.394 78.3638C16.2383 78.2597 16.1171 78.1117 16.0456 77.9387C15.9741 77.7656 15.9555 77.5752 15.9923 77.3916C16.0291 77.208 16.1195 77.0395 16.2521 76.9073C16.3848 76.7751 16.5536 76.6853 16.7374 76.6492C16.9211 76.613 17.1114 76.6322 17.2842 76.7043C17.457 76.7765 17.6045 76.8982 17.7081 77.0542C17.8116 77.2102 17.8666 77.3935 17.8659 77.5807C17.8651 77.831 17.765 78.0708 17.5877 78.2475C17.4104 78.4242 17.1702 78.5234 16.9199 78.5234ZM16.9199 76.9632C16.7978 76.9632 16.6784 76.9994 16.5768 77.0672C16.4753 77.1351 16.3961 77.2315 16.3494 77.3444C16.3026 77.4572 16.2904 77.5814 16.3142 77.7012C16.338 77.821 16.3969 77.931 16.4832 78.0174C16.5696 78.1037 16.6796 78.1625 16.7994 78.1864C16.9192 78.2102 17.0434 78.198 17.1562 78.1512C17.2691 78.1045 17.3655 78.0253 17.4334 77.9238C17.5012 77.8222 17.5374 77.7028 17.5374 77.5807C17.5374 77.4169 17.4724 77.2598 17.3566 77.144C17.2408 77.0282 17.0837 76.9632 16.9199 76.9632Z" fill="#EBEBEB"/>
<path d="M19.1835 113.313H18.855V95.3483L18.8714 95.3088L24.8136 84.1043V63.9881H25.1421V84.1832L25.1257 84.2193L19.1835 95.4271V113.313Z" fill="#EBEBEB"/>
<path d="M24.9778 64.1523C24.7907 64.1523 24.6078 64.0969 24.4522 63.9929C24.2966 63.889 24.1754 63.7412 24.1038 63.5683C24.0321 63.3955 24.0134 63.2053 24.0499 63.0218C24.0864 62.8382 24.1765 62.6697 24.3088 62.5374C24.4411 62.4051 24.6097 62.315 24.7932 62.2785C24.9767 62.242 25.1669 62.2607 25.3398 62.3323C25.5127 62.4039 25.6604 62.5252 25.7644 62.6807C25.8683 62.8363 25.9238 63.0192 25.9238 63.2063C25.9238 63.4572 25.8241 63.6978 25.6467 63.8753C25.4693 64.0527 25.2287 64.1523 24.9778 64.1523ZM24.9778 62.5921C24.8555 62.5921 24.736 62.6284 24.6343 62.6964C24.5327 62.7644 24.4536 62.861 24.4069 62.974C24.3603 63.0871 24.3482 63.2114 24.3723 63.3313C24.3964 63.4512 24.4556 63.5612 24.5423 63.6474C24.629 63.7337 24.7393 63.7922 24.8593 63.8157C24.9793 63.8391 25.1036 63.8264 25.2164 63.7792C25.3292 63.7319 25.4254 63.6523 25.4928 63.5503C25.5603 63.4483 25.596 63.3286 25.5953 63.2063C25.5953 63.1254 25.5793 63.0452 25.5482 62.9705C25.5172 62.8957 25.4716 62.8279 25.4142 62.7708C25.3569 62.7137 25.2887 62.6685 25.2138 62.6379C25.1389 62.6072 25.0587 62.5916 24.9778 62.5921Z" fill="#EBEBEB"/>
<path d="M21.2692 113.313H20.9407V96.5472L20.9604 96.5078L27.9669 84.1142V70.8829H28.2954V84.2029L28.2724 84.239L21.2692 96.6326V113.313Z" fill="#EBEBEB"/>
<path d="M28.1312 71.0472C27.9438 71.0478 27.7605 70.9928 27.6044 70.8891C27.4483 70.7854 27.3265 70.6377 27.2545 70.4647C27.1825 70.2917 27.1635 70.1012 27.1999 69.9174C27.2363 69.7336 27.3265 69.5647 27.459 69.4322C27.5915 69.2997 27.7603 69.2096 27.9442 69.1732C28.128 69.1368 28.3185 69.1558 28.4915 69.2278C28.6645 69.2998 28.8122 69.4216 28.9159 69.5776C29.0196 69.7337 29.0746 69.9171 29.0739 70.1044C29.0731 70.3542 28.9735 70.5935 28.7969 70.7701C28.6202 70.9467 28.381 71.0463 28.1312 71.0472ZM28.1312 69.4869C28.0089 69.4862 27.8892 69.5219 27.7872 69.5894C27.6852 69.6568 27.6056 69.7531 27.5583 69.8658C27.5111 69.9786 27.4984 70.1029 27.5218 70.2229C27.5453 70.3429 27.6038 70.4532 27.6901 70.5399C27.7763 70.6266 27.8863 70.6858 28.0062 70.7099C28.1261 70.734 28.2504 70.7219 28.3635 70.6753C28.4765 70.6286 28.5731 70.5495 28.6411 70.4479C28.7091 70.3462 28.7454 70.2267 28.7455 70.1044C28.7455 69.9412 28.6808 69.7846 28.5657 69.6689C28.4506 69.5532 28.2944 69.4878 28.1312 69.4869Z" fill="#EBEBEB"/>
<path d="M208.678 32.0268L210.977 28.3314L209.847 27.6317C209.683 27.5294 209.55 27.3826 209.465 27.2082C209.381 27.0339 209.347 26.839 209.368 26.6463C209.385 26.4273 209.392 26.2083 209.388 25.9893C209.382 25.7987 209.429 25.6101 209.524 25.4448C209.619 25.2795 209.758 25.1439 209.926 25.0531L211.099 24.4225L209.007 20.6121L207.834 21.2428C207.665 21.3317 207.474 21.3721 207.283 21.3593C207.092 21.3466 206.909 21.2812 206.753 21.1705C206.576 21.0489 206.392 20.934 206.201 20.842C206.032 20.7522 205.892 20.617 205.795 20.4516C205.699 20.2862 205.651 20.0972 205.656 19.9058L205.699 18.5722L201.353 18.4375L201.31 19.7744C201.303 19.9658 201.243 20.1513 201.136 20.3103C201.029 20.4692 200.88 20.5953 200.706 20.6745C200.607 20.7205 200.512 20.7665 200.42 20.819C200.328 20.8716 200.233 20.9208 200.141 20.9767C199.978 21.0766 199.791 21.1296 199.6 21.1296C199.41 21.1296 199.223 21.0766 199.06 20.9767L197.92 20.2704L195.621 23.9659L196.754 24.6721C196.919 24.7741 197.052 24.9209 197.137 25.0953C197.222 25.2698 197.255 25.4647 197.234 25.6576C197.215 25.876 197.209 26.0953 197.214 26.3145C197.219 26.5059 197.171 26.6949 197.075 26.8607C196.98 27.0265 196.84 27.1626 196.672 27.254L195.519 27.8387L197.575 31.6721L198.748 31.0447C198.917 30.9552 199.107 30.9143 199.298 30.9265C199.489 30.9387 199.673 31.0034 199.829 31.1136C200.007 31.233 200.191 31.3427 200.381 31.4421C200.55 31.5319 200.69 31.6672 200.787 31.8326C200.883 31.998 200.931 32.187 200.926 32.3783L200.886 33.7119L205.232 33.8466L205.275 32.513C205.282 32.322 205.342 32.1368 205.449 31.9784C205.556 31.8199 205.705 31.6945 205.879 31.6162L206.165 31.4717L206.444 31.3107C206.607 31.2108 206.795 31.158 206.986 31.158C207.178 31.158 207.365 31.2108 207.528 31.3107L208.678 32.0268ZM204.999 29.284C204.378 29.6168 203.672 29.7579 202.97 29.6894C202.269 29.621 201.603 29.3461 201.058 28.8994C200.513 28.4528 200.112 27.8545 199.907 27.1802C199.701 26.5059 199.701 25.7858 199.905 25.1111C200.109 24.4364 200.508 23.8373 201.052 23.3896C201.597 22.9419 202.262 22.6656 202.963 22.5958C203.664 22.5259 204.371 22.6656 204.993 22.9972C205.615 23.3288 206.125 23.8373 206.457 24.4586C206.678 24.8722 206.815 25.3252 206.86 25.7917C206.905 26.2582 206.858 26.729 206.721 27.1772C206.584 27.6254 206.36 28.0422 206.062 28.4037C205.763 28.7652 205.397 29.0644 204.983 29.284H204.999Z" fill="#EBEBEB"/>
<path d="M8.69142 64.8783L11.3193 63.3541L10.8528 62.5461C10.786 62.4297 10.7531 62.297 10.7577 62.1629C10.7624 62.0288 10.8044 61.8987 10.8791 61.7873C10.9623 61.6603 11.0379 61.5289 11.1058 61.3931C11.1667 61.2714 11.2606 61.1694 11.3768 61.0985C11.4929 61.0277 11.6267 60.9909 11.7627 60.9923H12.6956V57.944H11.7627C11.6267 57.9455 11.4929 57.9087 11.3768 57.8379C11.2606 57.767 11.1667 57.6649 11.1058 57.5433C11.0379 57.4075 10.9623 57.2761 10.8791 57.1491C10.8044 57.0377 10.7624 56.9075 10.7577 56.7735C10.7531 56.6394 10.786 56.5067 10.8528 56.3903L11.3193 55.5823L8.69142 54.0581L8.22498 54.8694C8.15898 54.9835 8.06264 55.0771 7.94666 55.1397C7.83068 55.2024 7.69961 55.2316 7.56801 55.2242H7.10485C6.9737 55.2312 6.84313 55.2021 6.72732 55.1401C6.61151 55.0782 6.51488 54.9857 6.44789 54.8727L5.97816 54.0581L3.3503 55.5823L3.81675 56.3936C3.88356 56.5099 3.91651 56.6427 3.91187 56.7768C3.90722 56.9108 3.86517 57.041 3.79047 57.1524C3.70792 57.2785 3.63226 57.409 3.56382 57.5433C3.50287 57.6649 3.40897 57.767 3.29281 57.8379C3.17665 57.9087 3.04291 57.9455 2.90685 57.944H1.96411V60.9923H2.897C3.03306 60.9909 3.16679 61.0277 3.28295 61.0985C3.39911 61.1694 3.49302 61.2714 3.55396 61.3931C3.6224 61.5274 3.69806 61.6579 3.78062 61.784C3.85525 61.8961 3.89723 62.0267 3.90187 62.1613C3.90651 62.2959 3.87363 62.4291 3.8069 62.5461L3.34045 63.3541L5.96831 64.8783L6.43804 64.0669C6.50487 63.9536 6.60138 63.8607 6.71715 63.7981C6.83293 63.7356 6.96357 63.7059 7.095 63.7122C7.16727 63.7122 7.24282 63.7122 7.31837 63.7122C7.39392 63.7122 7.46947 63.7122 7.54502 63.7122C7.67639 63.7063 7.8069 63.7361 7.92261 63.7986C8.03831 63.8611 8.13488 63.9538 8.20198 64.0669L8.69142 64.8783ZM7.31837 61.9647C6.82475 61.964 6.34241 61.817 5.9323 61.5423C5.52219 61.2676 5.20273 60.8775 5.01428 60.4213C4.82583 59.965 4.77686 59.4632 4.87356 58.9791C4.97026 58.4951 5.20828 58.0506 5.55755 57.7018C5.90682 57.353 6.35165 57.1155 6.83582 57.0195C7.32 56.9234 7.82179 56.973 8.27777 57.1621C8.73374 57.3511 9.12344 57.6711 9.39761 58.0816C9.67178 58.492 9.81812 58.9746 9.81812 59.4682C9.81855 59.7964 9.75416 60.1215 9.62865 60.4248C9.50314 60.7281 9.31898 61.0036 9.08672 61.2356C8.85447 61.4675 8.5787 61.6513 8.27524 61.7765C7.97178 61.9016 7.64661 61.9655 7.31837 61.9647Z" fill="#EBEBEB"/>
<path d="M195.237 34.7006L193.716 32.0728L192.911 32.5294C192.794 32.5961 192.661 32.629 192.526 32.6244C192.392 32.6197 192.261 32.5777 192.149 32.5031C192.022 32.4198 191.89 32.3442 191.755 32.2765C191.633 32.2155 191.531 32.1216 191.46 32.0054C191.389 31.8893 191.352 31.7555 191.354 31.6195V30.6866H188.312V31.6195C188.314 31.7555 188.277 31.8893 188.206 32.0054C188.135 32.1216 188.033 32.2155 187.911 32.2765C187.775 32.3448 187.642 32.4205 187.514 32.5031C187.403 32.5778 187.272 32.6199 187.138 32.6245C187.004 32.6291 186.872 32.5962 186.755 32.5294L185.947 32.0629L184.426 34.6908L185.238 35.1572C185.353 35.2262 185.447 35.3255 185.509 35.4442C185.572 35.563 185.601 35.6967 185.592 35.8306C185.592 35.9062 185.592 35.9817 185.592 36.054C185.592 36.1263 185.592 36.2051 185.592 36.2806C185.599 36.4121 185.569 36.5429 185.507 36.6588C185.444 36.7746 185.351 36.8711 185.238 36.9376L184.426 37.4073L185.947 40.0352L186.759 39.5688C186.875 39.5019 187.008 39.469 187.142 39.4736C187.276 39.4783 187.406 39.5203 187.517 39.595C187.646 39.6782 187.778 39.7538 187.911 39.8217C188.033 39.8826 188.135 39.9765 188.206 40.0927C188.277 40.2089 188.314 40.3426 188.312 40.4786V41.4115H191.357V40.4786C191.356 40.3426 191.393 40.2089 191.463 40.0927C191.534 39.9765 191.636 39.8826 191.758 39.8217C191.894 39.7516 192.025 39.6761 192.152 39.595C192.264 39.5203 192.394 39.4783 192.528 39.4736C192.662 39.469 192.795 39.5019 192.911 39.5688L193.722 40.0352L195.243 37.4073L194.432 36.9409C194.319 36.8736 194.227 36.7769 194.165 36.6612C194.103 36.5455 194.074 36.415 194.08 36.2839C194.08 36.2084 194.08 36.1328 194.08 36.0573C194.08 35.9817 194.08 35.9095 194.08 35.8339C194.072 35.6999 194.1 35.5661 194.163 35.4473C194.226 35.3284 194.32 35.2292 194.435 35.1605L195.237 34.7006ZM192.323 36.0507C192.323 36.5446 192.176 37.0274 191.902 37.438C191.628 37.8486 191.237 38.1686 190.781 38.3575C190.325 38.5463 189.823 38.5956 189.338 38.499C188.854 38.4024 188.409 38.1643 188.06 37.8148C187.711 37.4653 187.474 37.0202 187.378 36.5357C187.282 36.0512 187.332 35.5492 187.521 35.0931C187.71 34.637 188.031 34.2473 188.442 33.9734C188.853 33.6995 189.336 33.5536 189.83 33.5542C190.157 33.5542 190.482 33.6188 190.785 33.7443C191.087 33.8698 191.362 34.0538 191.594 34.2856C191.825 34.5175 192.009 34.7927 192.134 35.0956C192.259 35.3985 192.323 35.723 192.323 36.0507Z" fill="#EBEBEB"/>
<path d="M15.6948 88.3023C13.5958 83.9894 9.92334 81.7754 5.78446 83.0006C1.64559 84.2259 1.00505 89.994 4.09278 91.4525C7.18051 92.9109 10.2748 88.6538 11.9172 87.7801C13.5596 86.9063 15.6948 88.3023 15.6948 88.3023Z" fill="#9232E6"/>
<path d="M17.7248 99.7762C17.7248 99.2572 17.6952 98.7349 17.6755 98.2159C17.6405 97.1779 17.6032 96.1399 17.5638 95.1019C17.5014 93.2066 17.2912 91.3474 16.516 89.5933C15.8215 88.0065 14.661 86.6685 13.1884 85.7566C12.639 85.4212 12.0453 85.1647 11.4245 84.9945C10.8675 84.429 10.1573 84.0385 9.38133 83.8711C8.42298 83.6763 7.43781 83.6518 6.47098 83.7988C6.46518 83.8009 6.46015 83.8046 6.4566 83.8096C6.45304 83.8146 6.45113 83.8206 6.45113 83.8268C6.45113 83.8329 6.45304 83.8389 6.4566 83.8439C6.46015 83.8489 6.46518 83.8527 6.47098 83.8547C7.39227 83.7348 8.32826 83.8007 9.22366 84.0485C9.60753 84.1549 9.97955 84.3002 10.3339 84.4821C10.5628 84.6012 10.7824 84.7374 10.9909 84.8894C9.85059 84.637 8.65998 84.746 7.58453 85.2015C7.35804 85.1525 7.12623 85.1326 6.89472 85.1423C6.59201 85.152 6.29128 85.195 5.99796 85.2704C5.3992 85.4396 4.82663 85.6905 4.29643 86.0161C4.26686 86.0325 4.29643 86.0785 4.32599 86.0621C4.84724 85.7772 5.40551 85.566 5.98482 85.4347C6.26603 85.372 6.55149 85.3303 6.83888 85.3099C6.99886 85.3059 7.15894 85.3103 7.31846 85.323C6.14023 85.8685 5.19304 86.8134 4.64462 87.9903C4.64462 88.0231 4.67746 88.0494 4.6906 88.0166C5.01715 87.3342 5.49325 86.7341 6.08353 86.2609C6.67382 85.7878 7.36313 85.4538 8.10025 85.2836C8.19222 85.2606 8.2842 85.2474 8.37946 85.231C8.346 85.3696 8.32077 85.51 8.30391 85.6515C8.27763 85.8617 8.24149 86.0687 8.19879 86.2756C8.11555 86.7035 8.00584 87.1259 7.87031 87.5403C7.72948 87.958 7.5616 88.3662 7.36773 88.7622C7.18235 89.1828 6.94746 89.5798 6.66806 89.9447C6.64179 89.9743 6.69106 90.0104 6.71077 89.9776C6.96041 89.5867 7.24948 89.2287 7.47613 88.8246C7.69651 88.4392 7.88651 88.0373 8.0444 87.6224C8.20285 87.2031 8.32591 86.7713 8.4123 86.3314C8.45829 86.0982 8.49443 85.865 8.5207 85.6285C8.54907 85.488 8.55791 85.3443 8.54698 85.2015C9.03399 85.1265 9.52871 85.1155 10.0186 85.1686C9.83463 86.2 9.63754 87.2709 9.05941 88.1644C9.03971 88.1939 9.09226 88.2235 9.10869 88.1907C9.378 87.7166 9.61505 87.225 9.81821 86.719C10.0096 86.2286 10.1291 85.713 10.173 85.1883C11.0279 85.3017 11.8531 85.5783 12.6037 86.003C14.0173 86.8253 15.1461 88.0595 15.8393 89.5407C16.5673 91.1364 16.9746 92.8597 17.0382 94.6125C17.1762 96.8199 17.2058 99.0371 17.4258 101.235C17.4258 101.379 17.6656 101.428 17.6952 101.264C17.752 100.77 17.7619 100.272 17.7248 99.7762Z" fill="#263238"/>
<path d="M12.8762 85.415C12.7366 85.2476 12.5754 85.0996 12.3966 84.9748C12.2258 84.8336 12.0484 84.6956 11.8645 84.5708C11.5017 84.3173 11.0985 84.1274 10.6721 84.0091C10.6393 84.0091 10.6261 84.0551 10.6721 84.0616C11.0983 84.1781 11.4947 84.3841 11.8349 84.666C12.0123 84.7942 12.1634 84.9321 12.3441 85.0766C12.4895 85.2298 12.6514 85.3665 12.8269 85.484C12.8361 85.4905 12.8475 85.4931 12.8585 85.4913C12.8696 85.4894 12.8795 85.4833 12.8861 85.4741C12.8926 85.465 12.8952 85.4536 12.8934 85.4425C12.8915 85.4314 12.8854 85.4215 12.8762 85.415Z" fill="#263238"/>
<path d="M6.17879 86.9654C5.83104 87.3692 5.50957 87.7949 5.21633 88.2399C4.92783 88.6861 4.68777 89.1618 4.50024 89.659C4.50024 89.6754 4.50024 89.682 4.52324 89.659C5.00322 88.7197 5.57072 87.8277 6.21821 86.995C6.2412 86.9917 6.1985 86.9654 6.17879 86.9654Z" fill="#263238"/>
<path d="M10.6919 86.5515C10.6478 86.8214 10.5683 87.0842 10.4554 87.3333C10.3398 87.5732 10.2059 87.8039 10.0547 88.0231C10.0547 88.0231 10.0547 88.0527 10.081 88.0428C10.441 87.6257 10.6696 87.1114 10.7379 86.5647C10.7511 86.5318 10.6985 86.5187 10.6919 86.5515Z" fill="#263238"/>
<path d="M17.4324 88.4107C17.4324 88.4107 20.3887 84.6759 26.1404 85.9997C31.5899 87.2578 34.1061 97.2535 28.5975 98.4491C23.0888 99.6448 24.0611 90.3948 22.0541 88.8246C20.5792 87.6749 18.4605 87.9213 17.4324 88.4107Z" fill="#9232E6"/>
<path d="M30.5686 91.459C30.1957 91.1301 29.8006 90.8272 29.3861 90.5524C28.9983 90.2852 28.5748 90.074 28.128 89.925C27.9047 89.5846 27.6542 89.2627 27.3791 88.9626C26.8745 88.4184 26.2909 87.9534 25.6479 87.583H25.8188C26.1218 87.5666 26.4256 87.5666 26.7287 87.583C27.3406 87.6214 27.9405 87.7705 28.4992 88.0231C28.532 88.0231 28.555 87.987 28.5222 87.9738C27.9552 87.7299 27.3623 87.5513 26.7549 87.4417C26.4589 87.3891 26.1588 87.3627 25.8582 87.3629C25.6972 87.3629 25.5297 87.3629 25.3786 87.3924H25.2866C24.7639 87.1285 24.2129 86.9246 23.6442 86.7847L23.8052 86.742C24.0861 86.6801 24.3701 86.6329 24.6559 86.6008C25.2267 86.5405 25.8029 86.5527 26.3706 86.6369C26.4067 86.6369 26.4166 86.5877 26.3706 86.5844C25.7952 86.5154 25.2153 86.4924 24.6362 86.5154C24.1503 86.5274 23.667 86.5901 23.1942 86.7026C22.8491 86.6391 22.5001 86.5985 22.1496 86.5811C20.1492 86.499 17.968 87.238 16.7362 88.8805C15.5044 90.5229 15.2646 92.7204 15.0478 94.7077C14.7119 97.4724 14.6382 100.263 14.8278 103.041C14.8278 103.206 15.0708 103.176 15.0774 103.022C15.1529 100.663 15.2351 98.3079 15.4617 95.9592C15.5636 94.8687 15.6818 93.7781 15.8625 92.7007C15.9938 91.7737 16.2593 90.8708 16.6508 90.0203C17.0757 89.1491 17.7504 88.4241 18.5889 87.9377C19.4288 87.4581 20.3642 87.1698 21.3284 87.0935C22.1945 87.0225 23.0663 87.1047 23.9037 87.3366C23.8776 87.5042 23.8776 87.6748 23.9037 87.8425C23.9237 88.0553 23.9655 88.2655 24.0285 88.4698C24.0921 88.6616 24.1723 88.8473 24.2683 89.025C24.3767 89.2221 24.5081 89.3995 24.6297 89.5867C24.6297 89.6163 24.6953 89.5867 24.6724 89.5538C24.4369 89.2177 24.2849 88.8304 24.2289 88.4239C24.1926 88.2308 24.1696 88.0354 24.1599 87.8392C24.1599 87.6914 24.1599 87.5435 24.1599 87.3957C25.0702 87.6729 25.9204 88.1186 26.6662 88.7096C26.8042 88.8213 26.9389 88.9396 27.0703 89.0611C26.8805 89.2349 26.7168 89.4352 26.5841 89.6557C26.3751 89.9458 26.1937 90.2548 26.0421 90.5787C25.7766 91.2166 25.5976 91.8872 25.51 92.5726C25.512 92.5784 25.5158 92.5834 25.5208 92.587C25.5258 92.5905 25.5318 92.5924 25.5379 92.5924C25.544 92.5924 25.55 92.5905 25.555 92.587C25.56 92.5834 25.5638 92.5784 25.5658 92.5726C25.6736 91.9097 25.8959 91.2705 26.2228 90.6838C26.3752 90.3934 26.5453 90.1126 26.7319 89.8429C26.8305 89.7049 26.929 89.567 27.0341 89.4356C27.09 89.3666 27.1524 89.2943 27.205 89.2155C27.8794 89.8791 28.4301 90.6578 28.8309 91.5149C28.5588 91.8008 28.3317 92.1264 28.1576 92.4806C27.9513 92.8503 27.7724 93.2346 27.6221 93.6303C27.3437 94.3934 27.1144 95.1735 26.9356 95.9658C26.9376 95.9716 26.9414 95.9766 26.9464 95.9802C26.9514 95.9837 26.9574 95.9857 26.9635 95.9857C26.9697 95.9857 26.9756 95.9837 26.9806 95.9802C26.9857 95.9766 26.9894 95.9716 26.9914 95.9658C27.1666 95.169 27.4391 94.3967 27.8028 93.6664C27.9736 93.3084 28.1576 92.9536 28.3481 92.6054C28.5456 92.2815 28.7255 91.947 28.8868 91.6036C29.2694 92.4395 29.4923 93.3398 29.5437 94.2577C29.5437 94.2938 29.5996 94.2906 29.5996 94.2577C29.4937 92.8171 29.0528 91.4212 28.3119 90.1812C28.6601 90.3291 29.0116 90.4736 29.3499 90.6543C29.7802 90.8835 30.1807 91.1648 30.5423 91.4919C30.5588 91.5247 30.5949 91.482 30.5686 91.459Z" fill="#263238"/>
<path d="M29.9836 90.2667C29.7577 90.0485 29.5009 89.8648 29.2215 89.7214C28.9383 89.5941 28.6449 89.4909 28.3445 89.4126C28.3116 89.4126 28.2985 89.4586 28.3445 89.4652C28.6401 89.5432 28.924 89.6603 29.1887 89.8134C29.4608 89.9536 29.7221 90.1139 29.9705 90.2929C29.9836 90.3061 30.0132 90.2798 29.9836 90.2667Z" fill="#263238"/>
<path d="M20.2573 83.4211C20.2573 83.4211 20.8059 76.7135 25.7922 74.5521C29.9574 72.7356 32.3422 77.4164 29.4055 80.2808C27.0273 82.5867 23.1972 81.5389 20.2573 83.4211Z" fill="#9232E6"/>
<path d="M28.476 75.8364C27.7171 76.1434 26.9768 76.4944 26.2588 76.8876C25.6603 77.2318 25.0843 77.6136 24.5342 78.0307C24.6164 77.8632 24.6886 77.6825 24.774 77.5183C24.9024 77.2583 25.0438 77.0051 25.1978 76.7595C25.5034 76.2519 25.8721 75.7851 26.2949 75.37C26.3212 75.3437 26.2949 75.3076 26.2555 75.3306C25.8352 75.7484 25.4486 76.1987 25.0992 76.6774C24.9266 76.9207 24.7687 77.174 24.6262 77.4361C24.4802 77.6763 24.3696 77.9363 24.2977 78.2081C24.278 78.2245 24.2583 78.2344 24.2419 78.2508C23.3713 78.9446 22.5734 79.7249 21.8604 80.5797C21.8604 80.514 21.8867 80.4483 21.9031 80.3892C21.9984 80.0607 22.1002 79.7322 22.2053 79.4038C22.4186 78.71 22.7223 78.0474 23.1086 77.4329C23.1283 77.4033 23.0791 77.377 23.0593 77.4066C22.6671 78.0176 22.318 78.6553 22.0148 79.3151C21.8828 79.6356 21.773 79.9649 21.6863 80.3005C21.6154 80.5205 21.5616 80.7456 21.5253 80.9739C21.3085 81.2498 21.095 81.529 20.8914 81.8148C18.7529 84.8631 17.6755 88.5487 17.4193 92.2375C17.3432 93.3384 17.3246 94.4425 17.3635 95.5454C17.3704 96.6563 17.4681 97.7648 17.6558 98.8597C17.6558 98.9287 17.7774 98.909 17.7774 98.84C17.7511 97.871 17.6525 96.9053 17.6328 95.9363C17.6131 94.9672 17.6328 93.9916 17.7248 93.0226C17.8822 91.086 18.2479 89.1719 18.8154 87.3136C19.3951 85.4117 20.2494 83.6046 21.3512 81.9495C21.5615 81.9068 21.7684 81.851 21.9754 81.7951C22.1823 81.7393 22.4747 81.667 22.721 81.598C23.2005 81.4766 23.6661 81.306 24.1105 81.0889C24.1135 81.0871 24.1162 81.0848 24.1183 81.0821C24.1204 81.0793 24.122 81.0762 24.1229 81.0728C24.1238 81.0695 24.1241 81.066 24.1236 81.0625C24.1232 81.0591 24.1221 81.0558 24.1203 81.0527C24.1186 81.0497 24.1163 81.0471 24.1136 81.0449C24.1108 81.0428 24.1077 81.0412 24.1043 81.0403C24.101 81.0394 24.0975 81.0392 24.094 81.0396C24.0906 81.04 24.0872 81.0412 24.0842 81.0429C23.6433 81.2814 23.1661 81.4457 22.6717 81.529C22.2841 81.6079 21.8768 81.6571 21.4859 81.7458C21.8472 81.2203 22.2316 80.7111 22.6455 80.2217C23.5966 80.3082 24.5555 80.2372 25.4835 80.0114C25.9768 79.8917 26.4617 79.7403 26.9354 79.5581C27.4347 79.3676 27.9209 79.118 28.4005 78.9012C28.4399 78.8848 28.4005 78.8289 28.3808 78.8486C27.4874 79.3364 26.5121 79.656 25.5033 79.7914C24.6133 79.9328 23.7141 80.0075 22.813 80.0147C23.1677 79.6074 23.5324 79.21 23.9233 78.8388C25.2372 77.5905 26.7876 76.4441 28.522 75.8463C28.5253 75.8791 28.5089 75.8233 28.476 75.8364Z" fill="#263238"/>
<path d="M24.4159 75.8594C24.1911 76.1422 23.9869 76.4408 23.8049 76.7529C23.6193 77.0823 23.4717 77.4316 23.3647 77.7942H23.3845C23.552 77.4657 23.6932 77.1372 23.8608 76.8088C24.0264 76.4864 24.2257 76.1825 24.4553 75.9022C24.4783 75.8693 24.4389 75.8299 24.4159 75.8594Z" fill="#263238"/>
<path d="M16.3782 82.2156C16.3486 82.5046 15.626 79.7782 11.4083 77.3606C7.57817 75.1631 3.0057 69.4442 6.76025 65.8342C9.79214 62.9205 17.7775 69.2734 16.3782 82.2156Z" fill="#9232E6"/>
<path d="M19.2818 97.8414C19.2238 95.0041 19.0045 92.1724 18.6248 89.3601C18.2923 86.7765 17.6957 84.2339 16.8444 81.7721C16.516 80.8852 16.1875 80.0115 15.7834 79.1443C15.8098 78.8097 15.8098 78.4736 15.7834 78.1391C15.7604 77.7088 15.721 77.2818 15.6816 76.8547C15.6422 76.4277 15.5995 75.9974 15.5502 75.5704C15.5009 75.1434 15.4057 74.7163 15.3893 74.2893C15.3893 74.2532 15.3269 74.2597 15.3367 74.2893C15.42 74.7372 15.4705 75.1907 15.4878 75.6459C15.5207 76.0598 15.5436 76.4737 15.5568 76.8909C15.5699 77.308 15.5568 77.7186 15.5568 78.1358C15.5568 78.2836 15.5568 78.4446 15.5568 78.6023C15.1593 77.7646 14.7356 76.9401 14.2757 76.1354C14.5615 74.3878 14.1903 72.5615 13.8323 70.8501C13.8323 70.8172 13.7731 70.8337 13.7797 70.8665C13.9548 71.7595 14.0483 72.6666 14.0589 73.5765C14.0589 74.2959 14.0392 75.012 14.0392 75.7313C13.9374 75.5572 13.8355 75.3864 13.7304 75.2156C13.1851 74.3222 12.6015 73.4462 11.9796 72.5878C12.0306 72.1732 12.0173 71.7533 11.9402 71.3428C11.87 70.883 11.7679 70.4286 11.6347 69.9829C11.5013 69.5374 11.3456 69.0989 11.1683 68.669C10.9843 68.2255 10.7412 67.8051 10.5639 67.355C10.5639 67.3189 10.4949 67.355 10.5146 67.378C10.7395 67.7949 10.9169 68.2356 11.0434 68.692C11.1827 69.1232 11.2978 69.5619 11.3884 70.0059C11.477 70.4526 11.5493 70.8961 11.6117 71.3461C11.6544 71.6417 11.6807 71.9505 11.73 72.2494C10.8269 71.0358 9.83895 69.8876 8.77364 68.8135C8.75064 68.7872 8.71451 68.8135 8.7375 68.8529C10.3384 70.66 11.7679 72.6119 13.0078 74.6835C13.0538 74.7623 13.0997 74.8411 13.1424 74.92C12.9125 74.7754 12.6464 74.6572 12.4264 74.5357C12.019 74.309 11.6084 74.0856 11.1978 73.8787L10.0022 73.2217C9.7985 73.1068 9.59484 72.9885 9.3879 72.8933C9.13462 72.7868 8.8907 72.6593 8.65867 72.5122C8.6291 72.4892 8.59297 72.5385 8.62582 72.5582C9.03314 72.7816 9.39118 73.1133 9.78536 73.363C10.1795 73.6126 10.5803 73.8557 10.9876 74.0824C11.7365 74.5028 12.5512 74.8017 13.287 75.2353C13.7994 76.1321 14.2724 77.0518 14.706 77.988C14.2593 77.6989 13.7994 77.4296 13.3362 77.1668C13.0373 76.9993 12.7384 76.8383 12.4362 76.6774C12.1349 76.5371 11.8506 76.3629 11.5887 76.1584C11.5624 76.1354 11.5263 76.1584 11.5493 76.1978C12.041 76.6406 12.5861 77.0203 13.172 77.3278C13.714 77.6562 14.2593 77.9486 14.8144 78.2245C15.2655 79.2122 15.6718 80.2184 16.0331 81.2433C17.8102 86.269 18.4606 91.6036 18.7726 96.9053C18.8679 98.4853 18.9139 100.062 18.9336 101.645C18.9533 103.229 18.8712 104.805 18.8745 106.382C18.8745 106.431 18.95 106.441 18.9566 106.382C19.1471 104.983 19.1799 103.557 19.2424 102.145C19.3048 100.732 19.3146 99.2769 19.2818 97.8414Z" fill="#263238"/>
<path d="M11.6183 75.0875C10.8489 74.7463 10.1008 74.3591 9.37804 73.928C8.64534 73.5156 7.93484 73.0649 7.24948 72.5779C7.24948 72.5779 7.22648 72.5779 7.24948 72.5976C7.8963 73.1195 8.57783 73.5969 9.28935 74.0265C10.0315 74.4459 10.7995 74.8178 11.5887 75.1401C11.6249 75.1401 11.6511 75.1006 11.6183 75.0875Z" fill="#263238"/>
<path d="M12.8402 69.4048C12.7778 69.1584 12.7022 68.9186 12.6201 68.6788C12.6224 68.6748 12.6236 68.6703 12.6236 68.6657C12.6236 68.6611 12.6224 68.6565 12.6201 68.6525C12.5676 68.5146 12.5117 68.3799 12.4559 68.2452L12.4362 68.1959C12.4362 68.1697 12.4132 68.1467 12.4033 68.1204C12.3869 68.1204 12.3935 68.0941 12.4033 68.1204C12.4197 68.1204 12.4296 68.2124 12.446 68.2616C12.4511 68.2872 12.4577 68.3124 12.4657 68.3372C12.7441 69.2742 12.9527 70.2305 13.0898 71.1983C13.0898 71.2278 13.1391 71.2278 13.1391 71.1983C13.0969 70.5923 12.9968 69.9917 12.8402 69.4048Z" fill="#263238"/>
<path d="M23.7393 98.8597L23.4371 102.427L22.5174 113.306H12.6465L11.7268 102.427L11.4246 98.8597H23.7393Z" fill="#37474F"/>
<path d="M23.7393 98.8597L23.4371 102.427H11.7268L11.4246 98.8597H23.7393Z" fill="#263238"/>
<path d="M24.7083 97.4308H10.4587V100.854H24.7083V97.4308Z" fill="#37474F"/>
<path d="M0 113.306L26.63 113.228L53.2601 113.198L106.52 113.142L159.78 113.198L186.41 113.228L213.04 113.306L186.41 113.388L159.78 113.415L106.52 113.471L53.2601 113.415L26.63 113.385L0 113.306Z" fill="#263238"/>
<path d="M183.697 17.682H28.7881V121.305H183.697V17.682Z" fill="#EBEBEB"/>
<path d="M182.57 18.9466H29.9148V120.04H182.57V18.9466Z" fill="#263238"/>
<path d="M203.872 129.074H8.61255V136.185H203.872V129.074Z" fill="#DBDBDB"/>
<path d="M8.61255 129.074L28.7912 121.305H183.697L203.875 129.074H8.61255Z" fill="#EBEBEB"/>
<path d="M30.5913 126.318L43.6123 121.305H168.876L181.897 126.318H30.5913Z" fill="#263238"/>
<path d="M173.948 26.6266H38.5439V112.36H173.948V26.6266Z" fill="white"/>
<path d="M173.947 26.6266H38.429V29.9245H173.947V26.6266Z" fill="#455A64"/>
<path d="M41.0501 28.2755C41.0501 28.4373 41.0022 28.5954 40.9123 28.73C40.8224 28.8645 40.6947 28.9693 40.5452 29.0312C40.3958 29.0931 40.2313 29.1093 40.0727 29.0777C39.914 29.0462 39.7683 28.9683 39.6539 28.8539C39.5395 28.7395 39.4616 28.5938 39.43 28.4351C39.3985 28.2764 39.4147 28.112 39.4766 27.9625C39.5385 27.8131 39.6433 27.6853 39.7778 27.5955C39.9123 27.5056 40.0705 27.4576 40.2322 27.4576C40.4492 27.4576 40.6572 27.5438 40.8106 27.6972C40.964 27.8506 41.0501 28.0586 41.0501 28.2755Z" fill="#C7C7C7"/>
<path d="M44.3907 28.2755C44.3907 28.4373 44.3428 28.5954 44.2529 28.73C44.163 28.8645 44.0353 28.9693 43.8858 29.0312C43.7364 29.0931 43.5719 29.1093 43.4132 29.0777C43.2546 29.0462 43.1088 28.9683 42.9944 28.8539C42.8801 28.7395 42.8022 28.5938 42.7706 28.4351C42.739 28.2764 42.7552 28.112 42.8171 27.9625C42.879 27.8131 42.9839 27.6853 43.1184 27.5955C43.2529 27.5056 43.411 27.4576 43.5728 27.4576C43.6803 27.4572 43.7869 27.478 43.8863 27.519C43.9858 27.5599 44.0761 27.6202 44.1521 27.6962C44.2282 27.7723 44.2884 27.8626 44.3293 27.962C44.3703 28.0615 44.3912 28.168 44.3907 28.2755Z" fill="white"/>
<path d="M47.7218 28.2755C47.7218 28.4373 47.6738 28.5954 47.5839 28.73C47.4941 28.8645 47.3663 28.9693 47.2169 29.0312C47.0674 29.0931 46.903 29.1093 46.7443 29.0777C46.5856 29.0462 46.4399 28.9683 46.3255 28.8539C46.2111 28.7395 46.1332 28.5938 46.1017 28.4351C46.0701 28.2764 46.0863 28.112 46.1482 27.9625C46.2101 27.8131 46.3149 27.6853 46.4494 27.5955C46.584 27.5056 46.7421 27.4576 46.9039 27.4576C47.0114 27.4572 47.1179 27.478 47.2174 27.519C47.3168 27.5599 47.4071 27.6202 47.4832 27.6962C47.5592 27.7723 47.6195 27.8626 47.6604 27.962C47.7014 28.0615 47.7222 28.168 47.7218 28.2755Z" fill="#9232E6"/>
<path d="M173.947 29.9245H171.543V112.357H173.947V29.9245Z" fill="#DBDBDB"/>
<path d="M172.742 58.5025C172.577 58.5025 172.419 58.437 172.303 58.3206C172.186 58.2042 172.121 58.0463 172.121 57.8816V31.0282C172.121 30.8636 172.186 30.7057 172.303 30.5892C172.419 30.4728 172.577 30.4074 172.742 30.4074C172.907 30.4074 173.064 30.4728 173.181 30.5892C173.297 30.7057 173.363 30.8636 173.363 31.0282V57.8816C173.363 58.0463 173.297 58.2042 173.181 58.3206C173.064 58.437 172.907 58.5025 172.742 58.5025Z" fill="#A6A6A6"/>
<path d="M154.997 51.3054H58.0425V66.0017H154.997V51.3054Z" fill="white"/>
<path d="M155.162 66.1627H57.8784V51.1412H155.162V66.1627ZM58.2069 65.8342H154.833V51.4697H58.2069V65.8342Z" fill="#DBDBDB"/>
<path d="M66.6029 55.2866C66.7916 55.8317 66.9204 56.3956 66.9873 56.9684C67.1296 58.0862 67.1296 59.2176 66.9873 60.3354C66.9189 60.9083 66.789 61.4722 66.5997 62.0172C66.4088 61.4726 66.2788 60.9086 66.212 60.3354C66.0719 59.2174 66.0719 58.0864 66.212 56.9684C66.2827 56.3956 66.4137 55.8319 66.6029 55.2866Z" fill="#37474F"/>
<path d="M69.9664 58.6503C69.4223 58.8441 68.8582 58.9763 68.2846 59.0444C67.7268 59.1154 67.1651 59.1505 66.6028 59.1496C66.0404 59.1523 65.4786 59.1172 64.921 59.0444C64.3466 58.9781 63.7815 58.8481 63.2358 58.6568C63.7823 58.4687 64.3472 58.3388 64.921 58.2692C65.4787 58.1981 66.0405 58.163 66.6028 58.1641C67.1651 58.1659 67.7267 58.2021 68.2846 58.2725C68.8573 58.3369 69.4212 58.4635 69.9664 58.6503Z" fill="#37474F"/>
<path d="M68.9811 56.2721C68.7291 56.7908 68.4218 57.2809 68.0647 57.7338C67.7216 58.1793 67.3497 58.6018 66.9511 58.9985C66.5538 59.3973 66.1314 59.7704 65.6865 60.1153C65.2324 60.4725 64.7412 60.7797 64.2214 61.0318C64.4735 60.512 64.7807 60.0208 65.1379 59.5667C65.4828 59.1218 65.8559 58.6994 66.2547 58.3021C66.6529 57.9052 67.0753 57.5333 67.5194 57.1885C67.9728 56.8321 68.4628 56.5249 68.9811 56.2721Z" fill="#37474F"/>
<path d="M68.9809 61.0318C68.4625 60.7789 67.9725 60.4717 67.5191 60.1153C67.0742 59.7704 66.6518 59.3973 66.2545 58.9985C65.8523 58.6011 65.4771 58.1776 65.1311 57.7305C64.7739 57.2765 64.4666 56.7853 64.2146 56.2655C64.735 56.5164 65.2263 56.8237 65.6796 57.1819C66.571 57.8707 67.3703 58.6711 68.0578 59.5634C68.4177 60.0181 68.7271 60.5104 68.9809 61.0318Z" fill="#37474F"/>
<path d="M79.7224 55.2866C79.911 55.8317 80.0398 56.3956 80.1067 56.9684C80.177 57.5263 80.2132 58.088 80.2151 58.6503C80.2161 59.2136 80.181 59.7765 80.11 60.3354C80.04 60.908 79.9101 61.4717 79.7224 62.0172C79.5315 61.4726 79.4015 60.9086 79.3347 60.3354C79.2621 59.7767 79.227 59.2137 79.2296 58.6503C79.2287 58.088 79.2638 57.5262 79.3347 56.9684C79.4027 56.3955 79.5327 55.8316 79.7224 55.2866Z" fill="#37474F"/>
<path d="M83.0861 58.6503C82.5416 58.8415 81.9775 58.9715 81.4042 59.0379C80.8464 59.1088 80.2847 59.1439 79.7224 59.143C79.159 59.1456 78.596 59.1105 78.0373 59.0379C77.4641 58.9711 76.9001 58.8411 76.3555 58.6503C76.901 58.4625 77.4647 58.3326 78.0373 58.2627C78.5962 58.1917 79.159 58.1566 79.7224 58.1575C80.2847 58.1594 80.8464 58.1956 81.4042 58.2659C81.9771 58.3328 82.541 58.4617 83.0861 58.6503Z" fill="#37474F"/>
<path d="M82.1005 56.2721C81.8485 56.7908 81.5412 57.2809 81.1841 57.7338C80.841 58.1793 80.469 58.6018 80.0705 58.9985C79.6732 59.3973 79.2508 59.7704 78.8058 60.1153C78.3518 60.4725 77.8606 60.7797 77.3408 61.0318C77.5929 60.512 77.9001 60.0208 78.2573 59.5667C78.6022 59.1218 78.9752 58.6994 79.3741 58.3021C79.7708 57.9035 80.1932 57.5316 80.6388 57.1885C81.0917 56.8314 81.5818 56.5241 82.1005 56.2721Z" fill="#37474F"/>
<path d="M82.1006 61.0318C81.5818 60.7797 81.0917 60.4724 80.6388 60.1153C80.1925 59.7721 79.77 59.3989 79.3742 58.9985C78.9788 58.6005 78.6101 58.1769 78.2705 57.7305C77.9133 57.2765 77.606 56.7853 77.354 56.2655C77.8745 56.5164 78.3658 56.8237 78.819 57.1819C79.7104 57.8707 80.5097 58.6711 81.1972 59.5634C81.5502 60.019 81.8531 60.5113 82.1006 61.0318Z" fill="#37474F"/>
<path d="M92.8387 55.2866C93.0299 55.8311 93.1599 56.3952 93.2263 56.9684C93.2972 57.5262 93.3323 58.088 93.3314 58.6503C93.334 59.2137 93.2989 59.7767 93.2263 60.3354C93.1595 60.9086 93.0295 61.4726 92.8387 62.0172C92.6504 61.4721 92.5215 60.9082 92.4543 60.3354C92.3823 59.7766 92.3461 59.2137 92.3459 58.6503C92.3478 58.088 92.384 57.5263 92.4543 56.9684C92.5212 56.3956 92.6501 55.8317 92.8387 55.2866Z" fill="#37474F"/>
<path d="M96.2057 58.6503C95.6611 58.8411 95.0971 58.9711 94.5239 59.0379C93.965 59.1089 93.4021 59.144 92.8388 59.143C92.2764 59.1455 91.7146 59.1104 91.1569 59.0379C90.5837 58.9715 90.0196 58.8415 89.4751 58.6503C90.0205 58.4622 90.5842 58.3322 91.1569 58.2627C91.7147 58.1918 92.2765 58.1567 92.8388 58.1575C93.4021 58.1593 93.9649 58.1955 94.5239 58.2659C95.0967 58.3331 95.6606 58.462 96.2057 58.6503Z" fill="#37474F"/>
<path d="M95.2202 56.2721C94.9681 56.7908 94.6608 57.2809 94.3037 57.7338C93.9607 58.1793 93.5887 58.6018 93.1901 58.9985C92.7929 59.3973 92.3704 59.7704 91.9255 60.1153C91.4714 60.4725 90.9803 60.7797 90.4604 61.0318C90.7113 60.5113 91.0187 60.02 91.3769 59.5667C91.7216 59.1226 92.0935 58.7002 92.4905 58.3021C92.889 57.9043 93.3125 57.5324 93.7584 57.1885C94.2113 56.8314 94.7014 56.5241 95.2202 56.2721Z" fill="#37474F"/>
<path d="M95.2202 61.0318C94.7014 60.7797 94.2113 60.4724 93.7584 60.1153C93.3117 59.7712 92.8881 59.3982 92.4905 58.9985C92.0926 58.6 91.7206 58.1765 91.3769 57.7305C91.0187 57.2772 90.7113 56.7859 90.4604 56.2655C90.9809 56.5164 91.4722 56.8237 91.9255 57.1819C92.8169 57.8707 93.6161 58.6711 94.3037 59.5634C94.6612 60.0184 94.9685 60.5107 95.2202 61.0318Z" fill="#37474F"/>
<path d="M105.958 55.2866C106.148 55.8316 106.278 56.3955 106.346 56.9684C106.486 58.0864 106.486 59.2174 106.346 60.3354C106.279 60.9086 106.149 61.4726 105.958 62.0172C105.769 61.4722 105.639 60.9083 105.57 60.3354C105.499 59.7765 105.464 59.2136 105.465 58.6503C105.467 58.088 105.503 57.5263 105.574 56.9684C105.641 56.3956 105.769 55.8317 105.958 55.2866Z" fill="#37474F"/>
<path d="M109.325 58.6503C108.78 58.8411 108.216 58.9711 107.643 59.0379C107.084 59.1089 106.522 59.144 105.958 59.143C105.396 59.1455 104.834 59.1104 104.276 59.0379C103.703 58.9715 103.139 58.8415 102.594 58.6503C103.14 58.4622 103.704 58.3322 104.276 58.2627C104.834 58.1918 105.396 58.1567 105.958 58.1575C106.522 58.1593 107.084 58.1955 107.643 58.2659C108.216 58.3331 108.78 58.462 109.325 58.6503Z" fill="#37474F"/>
<path d="M108.34 56.2721C108.088 56.7908 107.78 57.2809 107.423 57.7338C107.079 58.1794 106.706 58.6018 106.306 58.9985C105.911 59.3989 105.488 59.7721 105.042 60.1153C104.589 60.4724 104.099 60.7797 103.58 61.0318C103.83 60.5106 104.137 60.0192 104.497 59.5667C104.84 59.1218 105.212 58.6994 105.61 58.3021C106.008 57.9052 106.431 57.5333 106.875 57.1885C107.329 56.8321 107.82 56.5249 108.34 56.2721Z" fill="#37474F"/>
<path d="M108.34 61.0318C107.82 60.7789 107.329 60.4717 106.875 60.1153C106.43 59.7704 106.007 59.3973 105.61 58.9985C105.212 58.603 104.84 58.1816 104.497 57.7371C104.137 57.2846 103.83 56.7932 103.58 56.2721C104.1 56.5229 104.59 56.8302 105.042 57.1885C105.488 57.5306 105.911 57.9027 106.306 58.3021C106.705 58.7006 107.078 59.1241 107.423 59.57C107.78 60.0229 108.088 60.513 108.34 61.0318Z" fill="#37474F"/>
<path d="M119.078 55.2866C119.266 55.832 119.396 56.3957 119.465 56.9684C119.606 58.0864 119.606 59.2174 119.465 60.3354C119.399 60.9086 119.269 61.4726 119.078 62.0172C118.889 61.4722 118.759 60.9083 118.69 60.3354C118.548 59.2176 118.548 58.0862 118.69 56.9684C118.758 56.3954 118.888 55.8315 119.078 55.2866Z" fill="#37474F"/>
<path d="M122.445 58.6503C121.899 58.8415 121.334 58.9715 120.76 59.0379C120.202 59.109 119.64 59.1441 119.078 59.143C118.516 59.1456 117.954 59.1105 117.396 59.0379C116.824 58.9716 116.261 58.8416 115.718 58.6503C116.263 58.4618 116.827 58.3319 117.399 58.2627C117.957 58.1917 118.519 58.1566 119.081 58.1575C119.643 58.1592 120.205 58.1954 120.763 58.2659C121.336 58.333 121.9 58.4619 122.445 58.6503Z" fill="#37474F"/>
<path d="M121.459 56.2721C121.207 56.7916 120.899 57.2818 120.54 57.7338C119.85 58.6241 119.051 59.4242 118.161 60.1153C117.709 60.4724 117.218 60.7797 116.7 61.0318C116.949 60.5106 117.257 60.0192 117.616 59.5667C117.96 59.1218 118.332 58.6994 118.73 58.3021C119.128 57.9052 119.55 57.5333 119.994 57.1885C120.448 56.8314 120.94 56.5241 121.459 56.2721Z" fill="#37474F"/>
<path d="M121.459 61.0318C120.94 60.7797 120.448 60.4725 119.994 60.1153C119.549 59.7704 119.127 59.3973 118.73 58.9985C118.331 58.603 117.959 58.1816 117.616 57.7371C117.257 57.2846 116.949 56.7932 116.7 56.2721C117.219 56.5229 117.709 56.8302 118.161 57.1885C118.608 57.5306 119.03 57.9027 119.426 58.3021C119.825 58.6998 120.197 59.1234 120.54 59.57C120.899 60.022 121.207 60.5122 121.459 61.0318Z" fill="#37474F"/>
<path d="M132.197 55.2866C132.386 55.8317 132.515 56.3956 132.582 56.9684C132.724 58.0862 132.724 59.2176 132.582 60.3354C132.513 60.9083 132.383 61.4722 132.194 62.0172C132.003 61.4726 131.873 60.9086 131.807 60.3354C131.666 59.2174 131.666 58.0864 131.807 56.9684C131.877 56.3956 132.008 55.8319 132.197 55.2866Z" fill="#37474F"/>
<path d="M135.561 58.6503C135.017 58.8418 134.453 58.9718 133.879 59.0379C133.322 59.1089 132.76 59.144 132.198 59.143C131.635 59.1457 131.073 59.1106 130.516 59.0379C129.941 58.9715 129.376 58.8415 128.831 58.6503C129.377 58.4621 129.942 58.3322 130.516 58.2627C131.073 58.1916 131.635 58.1565 132.198 58.1575C132.76 58.1593 133.321 58.1955 133.879 58.2659C134.452 58.3324 135.016 58.4613 135.561 58.6503Z" fill="#37474F"/>
<path d="M134.576 56.2721C134.326 56.7922 134.019 57.2825 133.659 57.7338C133.317 58.1801 132.945 58.6026 132.546 58.9985C132.148 59.3973 131.726 59.7704 131.281 60.1153C130.828 60.4717 130.338 60.7789 129.819 61.0318C130.069 60.5114 130.375 60.0201 130.733 59.5667C131.424 58.6774 132.224 57.8784 133.114 57.1885C133.567 56.8321 134.057 56.5249 134.576 56.2721Z" fill="#37474F"/>
<path d="M134.576 61.0318C134.057 60.7789 133.567 60.4717 133.114 60.1153C132.226 59.4231 131.426 58.6244 130.733 57.7371C130.375 57.2837 130.069 56.7924 129.819 56.2721C130.338 56.5237 130.828 56.831 131.281 57.1885C131.726 57.5323 132.148 57.9043 132.546 58.3021C132.944 58.6998 133.316 59.1234 133.659 59.57C134.019 60.0213 134.326 60.5116 134.576 61.0318Z" fill="#37474F"/>
<path d="M123.099 55.6808V73.5699H118.043V55.6808C118.043 48.8779 112.876 43.3463 106.52 43.3463C100.164 43.3463 94.997 48.8779 94.997 55.6808V73.5699H89.9417V55.6808C89.9417 45.938 97.3785 38.0216 106.52 38.0216C115.662 38.0216 123.099 45.938 123.099 55.6808Z" fill="#455A64"/>
<path d="M89.9417 60.3321L94.997 60.5357V73.5699H89.9417V60.3321Z" fill="#263238"/>
<path d="M123.099 61.6821V73.5699H118.043V61.4752L123.099 61.6821Z" fill="#263238"/>
<path d="M129.579 63.3837H83.4639V105.222H129.579V63.3837Z" fill="#9232E6"/>
<path opacity="0.1" d="M129.576 63.3837H106.52V105.222H129.576V63.3837Z" fill="black"/>
<path d="M108.471 85.8354L110.399 94.9902H102.207L104.139 85.8354C103.383 85.3648 102.802 84.661 102.482 83.8305C102.162 83 102.122 82.088 102.367 81.2324C102.611 80.3768 103.128 79.6242 103.839 79.0884C104.549 78.5526 105.415 78.2628 106.305 78.2628C107.195 78.2628 108.06 78.5526 108.771 79.0884C109.482 79.6242 109.998 80.3768 110.243 81.2324C110.488 82.088 110.447 83 110.128 83.8305C109.808 84.661 109.226 85.3648 108.471 85.8354Z" fill="#263238"/>
<path d="M54.3201 118.155L55.0869 114.229L100.957 123.186C101.376 123.268 101.745 123.513 101.984 123.867C102.222 124.221 102.31 124.656 102.228 125.074L102.078 125.842C101.996 126.261 101.752 126.63 101.397 126.868C101.043 127.107 100.609 127.195 100.19 127.113L54.3201 118.155Z" fill="#9232E6"/>
<path opacity="0.1" d="M55.0831 114.224L54.3157 118.154L59.8544 119.236L60.6218 115.306L55.0831 114.224Z" fill="black"/>
<path d="M37.5391 109.217L36.1891 116.2C35.9607 117.371 35.9651 118.575 36.2021 119.744C36.4391 120.913 36.904 122.024 37.5703 123.014C38.2367 124.003 39.0913 124.851 40.0855 125.51C41.0798 126.169 42.194 126.626 43.3648 126.855C44.5355 127.083 45.7398 127.079 46.9088 126.842C48.0778 126.605 49.1887 126.14 50.1781 125.473C51.1674 124.807 52.0158 123.952 52.6749 122.958C53.3339 121.964 53.7907 120.85 54.0191 119.679L55.379 112.712C55.8425 110.346 55.3472 107.893 54.0021 105.893C52.657 103.892 50.5723 102.508 48.2066 102.044C45.8409 101.581 43.3879 102.076 41.3874 103.421C39.3869 104.766 38.0026 106.851 37.5391 109.217ZM52.5146 110.961C52.1106 113.034 50.3007 114.528 48.0637 114.886C50.0017 116.066 51.1186 118.125 50.7113 120.198C50.1726 122.97 47.1144 124.711 43.8854 124.081C40.6564 123.45 38.4852 120.687 39.0272 117.918C39.4312 115.846 41.2411 114.351 43.4814 113.976C41.5401 112.804 40.4265 110.738 40.8305 108.665C41.3725 105.889 44.4241 104.155 47.6498 104.786C50.8755 105.416 53.0698 108.189 52.5278 110.961H52.5146Z" fill="#9232E6"/>
<path d="M55.4277 112.454L53.9689 119.924C53.8904 120.327 54.1529 120.717 54.5553 120.795L54.9099 120.864C55.3123 120.943 55.7022 120.68 55.7808 120.278L57.2395 112.808C57.3181 112.406 57.0556 112.016 56.6532 111.937L56.2986 111.868C55.8962 111.79 55.5063 112.052 55.4277 112.454Z" fill="#9232E6"/>
<path d="M57.24 112.809L55.7812 120.279C55.7026 120.681 55.9651 121.071 56.3675 121.15L56.7221 121.219C57.1245 121.297 57.5145 121.035 57.593 120.633L59.0518 113.163C59.1304 112.76 58.8679 112.37 58.4655 112.292L58.1109 112.223C57.7085 112.144 57.3185 112.407 57.24 112.809Z" fill="#9232E6"/>
<path d="M89.9942 119.36L91.3607 119.626L92.1326 115.658L93.302 115.885L92.898 117.954L94.2612 118.22L94.6652 116.151L95.7 116.351L95.0594 119.623L96.4259 119.892L97.0664 116.621L98.5315 116.907L97.6807 121.275L99.0472 121.541L99.9012 117.173L101.287 117.445L100.197 123.029L87.9905 120.645L89.0778 115.06L90.7662 115.389L89.9942 119.36Z" fill="#9232E6"/>
<path d="M137.069 98.9057L128.118 106.132C126.4 107.505 124.919 108.74 124.212 109.453C124.03 109.603 123.883 109.792 123.782 110.005C123.782 110.005 123.782 110.005 123.782 110.025C123.844 110.81 134.422 124.859 134.95 125.224C135.479 125.588 136.57 124.097 136.593 123.227C136.616 122.356 134.973 115.162 134.973 115.162L143.842 107.85L137.069 98.9057Z" fill="#C95F50"/>
<path d="M129.944 104.657L128.108 106.139C126.39 107.512 124.909 108.747 124.202 109.46C124.038 109.626 123.893 109.811 123.772 110.012C123.772 110.012 123.772 110.012 123.772 110.031C123.834 110.816 134.412 124.866 134.94 125.23C135.469 125.595 136.56 124.104 136.583 123.233C136.606 122.363 134.963 115.169 134.963 115.169L136.849 113.687L129.944 104.657Z" fill="#EBEBEB"/>
<path d="M134.93 125.24C134.395 124.876 123.821 110.83 123.762 110.038C123.732 109.739 125.69 108.067 128.111 106.142L128.19 106.08L135.098 115.067L134.944 115.179C134.944 115.179 136.586 122.366 136.563 123.243C136.54 124.12 135.463 125.608 134.93 125.24Z" fill="#9232E6"/>
<path d="M135.354 124.672C133.63 122.261 126.449 112.699 124.56 110.445C124.534 110.445 124.56 110.426 124.56 110.445C126.203 112.873 133.475 122.379 135.331 124.692C135.357 124.741 135.394 124.741 135.354 124.672Z" fill="#263238"/>
<path d="M135.499 115.961C134.97 114.9 133.971 113.865 132.769 113.661C132.723 113.661 132.713 113.717 132.746 113.743C133.702 114.413 134.583 115.184 135.374 116.043C135.386 116.056 135.402 116.065 135.42 116.067C135.438 116.069 135.456 116.065 135.472 116.055C135.487 116.045 135.498 116.03 135.503 116.013C135.508 115.996 135.506 115.977 135.499 115.961Z" fill="#263238"/>
<path d="M135.6 116.939C135.072 115.875 134.07 114.844 132.871 114.64C132.825 114.64 132.815 114.699 132.844 114.722C133.8 115.392 134.681 116.163 135.472 117.022C135.478 117.03 135.485 117.037 135.493 117.043C135.501 117.049 135.51 117.053 135.52 117.055C135.53 117.057 135.54 117.057 135.55 117.055C135.56 117.054 135.569 117.05 135.577 117.044C135.586 117.039 135.593 117.032 135.599 117.024C135.605 117.016 135.609 117.006 135.611 116.997C135.613 116.987 135.613 116.977 135.611 116.967C135.609 116.957 135.606 116.948 135.6 116.939Z" fill="#263238"/>
<path d="M135.699 117.915C135.174 116.854 134.172 115.823 132.973 115.616C132.927 115.616 132.914 115.675 132.946 115.698C133.902 116.369 134.782 117.14 135.574 117.997C135.58 118.005 135.587 118.012 135.595 118.018C135.603 118.023 135.612 118.027 135.622 118.029C135.631 118.031 135.641 118.031 135.651 118.029C135.66 118.028 135.67 118.024 135.678 118.018C135.686 118.013 135.693 118.006 135.699 117.998C135.704 117.99 135.708 117.981 135.71 117.971C135.712 117.962 135.712 117.952 135.71 117.942C135.708 117.932 135.705 117.923 135.699 117.915Z" fill="#263238"/>
<path d="M141.898 90.2929C141.264 93.4234 128.279 105.909 128.279 105.909L137.332 116.358C137.332 116.358 155.766 97.963 154.804 91.0419C153.966 85.0274 144.949 60.8412 144.949 60.8412H134.576C134.576 60.8412 142.519 87.2151 141.898 90.2929Z" fill="#37474F"/>
<path d="M141.898 90.2929C141.264 93.4234 128.279 105.909 128.279 105.909L137.332 116.358C137.332 116.358 155.766 97.963 154.804 91.0419C153.966 85.0274 144.949 60.8412 144.949 60.8412H134.576C134.576 60.8412 142.519 87.2151 141.898 90.2929Z" fill="#37474F"/>
<path d="M138.36 113.875C137.157 112.377 137.525 112.791 136.307 111.306C135.709 110.58 131.784 105.814 131.107 105.232C131.107 105.232 131.067 105.232 131.077 105.259C131.531 106.024 135.538 110.721 136.149 111.437C137.397 112.896 137.056 112.465 138.317 113.911C138.343 113.937 138.383 113.901 138.36 113.875Z" fill="#263238"/>
<path d="M143.188 88.7688C143.037 87.987 142.86 87.2085 142.705 86.43C142.366 84.8401 142.008 83.2557 141.631 81.6768C140.882 78.5431 140.069 75.4269 139.191 72.3282C138.307 69.2208 137.371 66.1167 136.29 63.0683C136.159 62.6906 136.021 62.3161 135.883 61.9417C135.883 61.9356 135.88 61.9297 135.876 61.9254C135.872 61.9211 135.866 61.9187 135.86 61.9187C135.854 61.9187 135.848 61.9211 135.844 61.9254C135.839 61.9297 135.837 61.9356 135.837 61.9417C136.773 64.9965 137.736 68.0416 138.609 71.1096C139.483 74.1776 140.288 77.2456 141.05 80.3334C141.431 81.8838 141.786 83.4408 142.134 84.9978C142.305 85.7632 142.462 86.5318 142.633 87.2972C142.836 88.0761 142.982 88.8687 143.07 89.6688C143.094 90.4268 142.88 91.1733 142.459 91.8039C142.068 92.4412 141.612 93.039 141.168 93.6402C140.281 94.8424 131.826 104.267 131.553 104.523C131.53 104.542 131.553 104.572 131.586 104.552C132.72 103.534 139.894 95.7687 140.804 94.5665C141.257 93.9719 141.694 93.3708 142.117 92.7598C142.549 92.2084 142.896 91.5963 143.149 90.9433C143.348 90.2339 143.362 89.485 143.188 88.7688Z" fill="#263238"/>
<path d="M143.165 60.8412L141.28 85.5924C139.48 77.1208 134.576 60.8412 134.576 60.8412H143.165Z" fill="#263238"/>
<path d="M138.711 111.802C138.711 111.802 140.955 122.721 140.955 122.731C140.985 124.928 141.05 126.856 141.175 127.852C141.178 128.087 141.237 128.319 141.346 128.528C142.003 128.962 159.586 129.234 160.204 129.037C160.822 128.84 160.309 127.066 159.632 126.515C158.956 125.963 152.274 122.845 152.274 122.845L149.923 111.933L138.711 111.802Z" fill="#C95F50"/>
<path d="M160.22 129.067C159.606 129.264 142.022 128.991 141.362 128.558C141.255 128.348 141.196 128.117 141.191 127.881C141.19 127.875 141.19 127.868 141.191 127.861C141.063 126.876 141.001 124.944 140.968 122.744L140.58 120.842H151.85L152.29 122.885C152.29 122.885 158.975 126.002 159.655 126.557C160.335 127.112 160.841 128.873 160.22 129.067Z" fill="#EBEBEB"/>
<path d="M160.22 129.067C159.603 129.264 142.022 128.991 141.362 128.558C141.106 128.397 140.998 125.831 140.955 122.731V122.632L152.297 122.681V122.875C152.297 122.875 158.979 125.989 159.655 126.544C160.332 127.099 160.838 128.873 160.22 129.067Z" fill="#9232E6"/>
<path d="M160.033 128.384C157.077 128.265 145.11 128.055 142.173 128.173C142.151 128.173 142.151 128.19 142.173 128.193C145.107 128.374 157.067 128.476 160.033 128.433C160.095 128.43 160.095 128.387 160.033 128.384Z" fill="#263238"/>
<path d="M153.243 122.924C152.08 122.688 150.652 122.845 149.745 123.663C149.712 123.693 149.745 123.742 149.794 123.732C150.915 123.39 152.069 123.17 153.237 123.075C153.247 123.076 153.257 123.074 153.266 123.071C153.275 123.068 153.284 123.062 153.291 123.056C153.298 123.049 153.304 123.041 153.309 123.032C153.313 123.023 153.315 123.013 153.316 123.003C153.316 122.993 153.314 122.983 153.311 122.974C153.308 122.965 153.302 122.956 153.296 122.949C153.289 122.941 153.281 122.936 153.272 122.931C153.263 122.927 153.253 122.925 153.243 122.924Z" fill="#263238"/>
<path d="M154.074 123.443C152.915 123.207 151.482 123.364 150.579 124.182C150.546 124.215 150.579 124.265 150.628 124.251C151.748 123.91 152.901 123.689 154.068 123.594C154.088 123.595 154.107 123.588 154.122 123.575C154.137 123.561 154.146 123.542 154.146 123.522C154.147 123.502 154.14 123.483 154.127 123.468C154.113 123.453 154.094 123.444 154.074 123.443Z" fill="#263238"/>
<path d="M154.909 123.966C153.746 123.729 152.317 123.887 151.414 124.701C151.377 124.734 151.414 124.784 151.463 124.774C152.583 124.434 153.736 124.213 154.902 124.117C154.912 124.117 154.922 124.116 154.931 124.112C154.941 124.109 154.949 124.104 154.956 124.097C154.964 124.09 154.97 124.082 154.974 124.073C154.978 124.064 154.98 124.054 154.981 124.044C154.981 124.035 154.98 124.025 154.976 124.015C154.973 124.006 154.968 123.997 154.961 123.99C154.954 123.983 154.946 123.977 154.937 123.973C154.928 123.968 154.919 123.966 154.909 123.966Z" fill="#263238"/>
<path d="M143.967 60.8412C143.562 62.549 143.264 64.2801 143.073 66.0247C142.86 68.1992 142.587 70.1241 142.298 70.3639C142.009 70.6037 140.327 71.6779 139.775 72.0063C139.775 72.0063 144.893 87.5238 146.214 92.7007C148.129 100.197 152.714 122.694 152.714 122.694H140.495C140.495 122.694 136.78 101.281 135.154 94.1394C133.761 88.0198 128.426 69.661 128.426 69.661C127.864 68.2455 127.611 66.7259 127.685 65.2044C127.759 63.683 128.159 62.1952 128.857 60.8412C128.857 60.8412 143.967 60.8347 143.967 60.8412Z" fill="#37474F"/>
<path d="M152.268 120.329C150.346 120.329 150.898 120.296 148.983 120.306C148.044 120.306 141.868 120.352 140.994 120.513C140.989 120.513 140.984 120.515 140.98 120.519C140.977 120.523 140.975 120.528 140.975 120.533C140.975 120.538 140.977 120.543 140.98 120.547C140.984 120.551 140.989 120.553 140.994 120.553C141.875 120.684 148.047 120.533 148.986 120.51C150.908 120.461 150.356 120.454 152.271 120.385C152.277 120.383 152.282 120.379 152.285 120.374C152.288 120.368 152.29 120.362 152.289 120.356C152.289 120.35 152.287 120.344 152.283 120.339C152.279 120.334 152.274 120.331 152.268 120.329Z" fill="#263238"/>
<path d="M143.156 69.7497C141.969 70.4028 140.841 71.1579 139.785 72.0063C139.779 72.0134 139.775 72.0224 139.774 72.0319C139.774 72.0414 139.776 72.0509 139.781 72.0588C139.787 72.0668 139.794 72.0727 139.803 72.0757C139.813 72.0787 139.822 72.0785 139.831 72.0753C140.974 71.3592 142.131 70.6628 143.244 69.8843C143.258 69.871 143.266 69.8534 143.269 69.8344C143.271 69.8154 143.266 69.7963 143.255 69.7804C143.245 69.7645 143.229 69.7527 143.211 69.7471C143.193 69.7415 143.173 69.7424 143.156 69.7497Z" fill="#263238"/>
<path d="M142.223 61.3077C142.223 61.265 142.137 61.2683 142.144 61.3077C142.357 62.6737 142.5 64.0496 142.574 65.4301C142.617 66.0674 142.65 69.6314 141.517 69.546C141.326 69.546 141.188 69.3686 141.132 69.096C141.081 68.7346 141.075 68.3684 141.112 68.0054C141.112 67.2565 141.112 66.5108 141.053 65.7619C140.966 64.3789 140.737 63.0085 140.37 61.6723C140.37 61.6627 140.366 61.6535 140.36 61.6467C140.353 61.64 140.344 61.6362 140.334 61.6362C140.324 61.6362 140.315 61.64 140.308 61.6467C140.302 61.6535 140.298 61.6627 140.298 61.6723C140.626 63.5697 140.81 65.4891 140.85 67.4142C140.85 68.3438 140.61 69.7792 141.579 69.7694C142.548 69.7595 142.837 67.378 142.857 66.7375C142.881 64.9077 142.668 63.0825 142.223 61.3077Z" fill="#263238"/>
<path d="M141.559 69.6446C141.499 69.8944 141.455 70.1478 141.428 70.4034C141.392 70.6054 141.392 70.8123 141.428 71.0143C141.431 71.0221 141.436 71.0288 141.443 71.0334C141.45 71.0381 141.459 71.0406 141.467 71.0406C141.476 71.0406 141.484 71.0381 141.491 71.0334C141.498 71.0288 141.503 71.0221 141.507 71.0143C141.595 70.8188 141.65 70.6102 141.671 70.3968C141.72 70.1603 141.773 69.9271 141.815 69.6873C141.821 69.6533 141.813 69.6185 141.793 69.5904C141.773 69.5624 141.743 69.5435 141.709 69.5378C141.675 69.5321 141.64 69.5402 141.612 69.5602C141.584 69.5802 141.565 69.6106 141.559 69.6446Z" fill="#263238"/>
<path d="M130.171 69.5821C131.223 69.5236 132.264 69.327 133.265 68.9974C134.402 68.6341 135.433 67.998 136.267 67.1448C136.74 66.6759 137.129 66.1306 137.42 65.532C137.42 65.509 137.466 65.532 137.46 65.5517C137.281 66.1315 137.006 66.6768 136.645 67.1645C136.272 67.6476 135.829 68.0726 135.331 68.4259C134.346 69.1484 133.186 69.5961 131.971 69.7234C131.371 69.8165 130.761 69.8076 130.164 69.6971C130.069 69.684 130.095 69.5887 130.171 69.5821Z" fill="#263238"/>
<path d="M139.066 113.595C139.037 113.313 138.997 113.03 138.958 112.748C138.882 112.209 138.79 111.667 138.705 111.129C138.541 110.041 138.353 108.957 138.159 107.877C137.778 105.718 137.335 103.567 136.869 101.425C136.602 100.216 136.297 99.0207 135.972 97.8119C135.952 97.7265 135.834 97.7692 135.847 97.848C136.044 98.9451 136.235 100.039 136.458 101.133C136.681 102.227 136.905 103.304 137.115 104.391C137.542 106.54 137.939 108.698 138.366 110.846C138.485 111.454 138.596 112.061 138.715 112.669C138.774 112.971 138.833 113.277 138.899 113.576C138.964 113.875 139.056 114.174 139.106 114.476C139.106 114.505 139.155 114.492 139.151 114.476C139.106 114.183 139.102 113.901 139.066 113.595Z" fill="#263238"/>
<path d="M147.495 97.3586C147.088 95.3318 146.539 93.3314 145.987 91.3375C144.877 87.33 143.57 83.3784 142.265 79.4267C141.889 78.2902 141.512 77.1526 141.135 76.0138C140.948 75.4455 140.028 72.3742 139.914 72.072C139.912 72.067 139.908 72.0627 139.904 72.0596C139.899 72.0565 139.894 72.0549 139.889 72.0549C139.884 72.0549 139.878 72.0565 139.874 72.0596C139.869 72.0627 139.866 72.067 139.864 72.072C140.13 73.1166 140.492 74.6408 140.797 75.6853C141.103 76.7299 141.428 77.7252 141.746 78.7402C142.371 80.7407 143.005 82.7411 143.609 84.7449C144.808 88.7096 145.997 92.6744 146.969 96.7016C147.242 97.8316 147.515 98.9583 147.761 100.092C148.007 101.225 148.224 102.361 148.461 103.495C148.461 103.527 148.52 103.518 148.516 103.495C148.313 101.438 147.909 99.3952 147.495 97.3586Z" fill="#263238"/>
<path d="M139.897 107.965C139.224 104.099 138.419 100.253 137.525 96.429C136.632 92.6054 135.63 88.7688 134.53 84.9814C133.429 81.194 132.211 77.4263 130.916 73.7145C130.257 71.9632 129.703 70.1742 129.258 68.3569C128.853 66.5503 128.65 64.5958 129.07 62.7727C129.173 62.3101 129.312 61.8564 129.487 61.4161C129.487 61.3865 129.455 61.3602 129.441 61.3898C127.973 64.8159 128.926 68.5606 130.046 71.9374C130.657 73.7867 131.311 75.6229 131.918 77.4756C132.526 79.3282 133.13 81.286 133.702 83.2043C134.829 87.0048 135.876 90.8284 136.813 94.6782C137.749 98.528 138.586 102.404 139.322 106.3C140.058 110.196 140.679 114.134 141.31 118.06C141.392 118.572 141.454 119.084 141.523 119.597C141.523 119.626 141.569 119.626 141.566 119.597C141.08 115.704 140.567 111.828 139.897 107.965Z" fill="#263238"/>
<path d="M139.648 44.6175C141.086 49.8732 145.232 56.2129 147.203 57.0998C148.917 57.8619 156.873 54.9187 159.875 53.0069C160.729 52.4617 157.198 47.5443 156.17 47.8859C152.81 49.006 149.154 50.6616 148.871 50.5663C148.3 50.3725 144.732 45.9971 142.134 43.0539C139.221 39.7461 139.076 42.5251 139.648 44.6175Z" fill="#C95F50"/>
<path d="M165.548 48.5494C166.225 48.2669 171.431 48.1027 171.431 46.9727C171.431 45.8427 164.802 46.1581 164.802 46.1581L165.548 48.5494Z" fill="#C95F50"/>
<path d="M155.562 48.6808C156.472 47.5509 157.274 46.3322 158.065 46.1088C158.611 45.9544 164.507 46.2074 165.427 46.1515C166.346 46.0957 169.634 46.1811 169.697 46.9892C169.805 48.129 165.916 48.1191 165.502 48.7038C164.067 50.7174 158.604 53.6968 158.604 53.6968L155.562 48.6808Z" fill="#C95F50"/>
<path d="M169.799 47.0056C169.738 46.7958 169.604 46.6149 169.421 46.4964C168.99 46.2609 168.506 46.142 168.015 46.1515C167.296 46.0869 166.573 46.0814 165.854 46.1351C165.854 46.1351 165.854 46.1581 165.854 46.1614C166.396 46.1614 166.931 46.1614 167.47 46.2205C167.964 46.2389 168.454 46.3139 168.931 46.4439C169.146 46.499 169.34 46.6128 169.493 46.7724C169.546 46.8324 169.582 46.905 169.599 46.9833C169.616 47.0615 169.612 47.1427 169.588 47.2191C169.434 47.7151 168.452 47.8761 167.998 47.9648C167.407 48.0961 166.793 48.2111 166.198 48.3327C166.172 48.3327 166.198 48.3786 166.198 48.3721C166.816 48.2505 167.466 48.2045 168.087 48.0929C168.606 48.0422 169.103 47.8614 169.533 47.5673C169.626 47.509 169.701 47.4251 169.748 47.3255C169.795 47.2259 169.813 47.1149 169.799 47.0056Z" fill="#263238"/>
<path d="M155.336 47.9845L160 54.8136C160 54.8136 152.774 58.4269 150.008 58.3711C147.38 58.3086 146.424 57.921 145.593 57.136C145.077 56.6498 142.15 52.5142 139.762 45.6391C137.759 39.8775 140.725 40.7119 143.376 43.9178C144.69 45.5077 148.907 50.2477 149.118 50.2313C149.328 50.2148 155.336 47.9845 155.336 47.9845Z" fill="#9232E6"/>
<path d="M153.9 49.0947C154.6 50.1064 155.27 51.1379 155.93 52.1759C156.259 52.6817 157.468 54.7512 157.819 55.3392C157.819 55.3622 157.77 55.4016 157.753 55.3786C157.389 54.8596 156.071 52.7934 155.753 52.281C155.096 51.2331 154.475 50.182 153.871 49.1144C153.869 49.1125 153.868 49.1103 153.868 49.108C153.868 49.1057 153.868 49.1034 153.868 49.1011C153.868 49.0988 153.869 49.0966 153.871 49.0947C153.872 49.0927 153.874 49.0911 153.876 49.0898C153.878 49.0885 153.88 49.0876 153.882 49.0871C153.884 49.0867 153.887 49.0867 153.889 49.0872C153.891 49.0876 153.893 49.0885 153.895 49.0898C153.897 49.0911 153.899 49.0928 153.9 49.0947Z" fill="#263238"/>
<path opacity="0.1" d="M151.407 58.197C150.949 58.3096 150.479 58.368 150.008 58.371C147.38 58.3086 146.424 57.921 145.593 57.136C145.081 56.6498 142.15 52.5175 139.766 45.6391C139.391 44.6868 139.169 43.6813 139.109 42.6598C139.109 42.5973 139.109 42.5317 139.109 42.4725C139.105 42.4145 139.105 42.3564 139.109 42.2984C139.114 42.251 139.122 42.2038 139.132 42.1572C139.165 41.9428 139.267 41.7448 139.421 41.5922C141.053 43.7799 148.707 54.1172 151.407 58.197Z" fill="black"/>
<path d="M168.531 45.1825H150.845V46.1318H168.531V45.1825Z" fill="#C7C7C7"/>
<path d="M168.531 45.1825V46.1318H157.79L158.515 45.1825H168.531Z" fill="#A6A6A6"/>
<path d="M159.297 46.1318H171.126L177.281 35.6795H165.453L159.297 46.1318Z" fill="#C7C7C7"/>
<path d="M167.848 40.8991C167.627 41.382 167.788 41.8845 168.209 42.0356C168.444 42.09 168.691 42.0579 168.905 41.9451C169.118 41.8323 169.284 41.6464 169.372 41.4214C169.592 40.9385 169.431 40.4359 169.01 40.2848C168.775 40.2312 168.528 40.2636 168.315 40.3763C168.102 40.489 167.936 40.6745 167.848 40.8991Z" fill="white"/>
<path d="M127.717 64.4414C127.76 64.4874 146.234 64.356 146.401 64.1655C146.631 63.8961 142.256 43.9244 140.334 41.4707C139.923 40.9451 138.583 40.8137 137.447 40.9648C137.151 41.0016 136.858 41.0642 136.573 41.152H136.543C136.313 41.2241 136.096 41.3352 135.903 41.4805C132.766 44.0394 130.194 52.8953 129.599 55.5527C128.614 59.9346 127.563 64.2673 127.717 64.4414Z" fill="#EBEBEB"/>
<path d="M136.346 41.198C136.346 41.198 137.552 49.4101 137.838 51.5518C138.124 53.6935 137.838 64.9374 137.838 64.9374L126.246 65.9229C126.246 65.9229 128.676 58.4466 128.699 57.9736C128.699 57.9736 130.621 48.9896 132.605 45.281C133.491 43.6287 134.778 42.2248 136.346 41.198Z" fill="#9232E6"/>
<path d="M140.206 41.3426C140.206 41.3426 141.773 49.6597 141.911 50.3462C142.049 51.0328 144.056 64.5498 144.056 64.5498L146.956 64.6122L145.383 58.4368C145.383 58.4368 142.016 42.6203 140.206 41.3426Z" fill="#9232E6"/>
<path d="M139.552 44C138.672 44.1018 137.003 42.8766 136.537 41.5791C136.507 41.4871 136.77 40.6429 137.039 39.6082C137.2 38.9742 137.368 38.268 137.47 37.611C137.489 37.4763 141.431 39.2534 141.431 39.2534C141.065 40.0366 140.797 40.8618 140.633 41.7104C140.625 41.8022 140.625 41.8946 140.633 41.9864V42.0324C140.62 42.5612 140.498 43.8949 139.552 44Z" fill="#C95F50"/>
<path d="M140.62 41.9929C140.621 42.0082 140.621 42.0236 140.62 42.0389C140.477 42.0338 140.336 42.0184 140.196 41.9929C137.781 41.5561 137.62 38.4191 137.617 37.6307C138.333 37.8508 141.434 39.2731 141.434 39.2731C141.069 40.0575 140.8 40.8838 140.636 41.7334C140.625 41.8195 140.619 41.9062 140.62 41.9929Z" fill="#263238"/>
<path d="M137.515 32.3717C136.882 33.7842 137.125 38.1201 138.048 39.1943C139.388 40.7546 141.848 41.198 143.241 39.5228C144.591 37.9033 144.177 32.2567 143.119 31.2516C141.562 29.7734 138.448 30.2891 137.515 32.3717Z" fill="#C95F50"/>
<path d="M140.709 35.443C140.709 35.443 140.686 35.443 140.689 35.4693C140.712 35.7616 140.689 36.0967 140.433 36.2084C140.433 36.2084 140.433 36.2281 140.433 36.2248C140.755 36.1624 140.778 35.7222 140.709 35.443Z" fill="#263238"/>
<path d="M140.432 35.1507C139.963 35.1507 139.972 36.0836 140.409 36.0934C140.846 36.1033 140.826 35.1605 140.432 35.1507Z" fill="#263238"/>
<path d="M142.508 35.4266C142.508 35.4266 142.531 35.443 142.531 35.4529C142.531 35.7452 142.568 36.0836 142.834 36.1755C142.834 36.1755 142.834 36.1952 142.834 36.192C142.508 36.1525 142.456 35.7222 142.508 35.4266Z" fill="#263238"/>
<path d="M142.765 35.1211C143.234 35.0784 143.284 36.0211 142.847 36.0606C142.41 36.1 142.371 35.154 142.765 35.1211Z" fill="#263238"/>
<path d="M140.055 34.7368C140.183 34.7006 140.294 34.6481 140.419 34.6021C140.554 34.5738 140.676 34.5009 140.764 34.3952C140.786 34.3571 140.794 34.313 140.788 34.2697C140.782 34.2265 140.762 34.1863 140.731 34.1554C140.659 34.1037 140.575 34.0723 140.486 34.0642C140.398 34.0561 140.309 34.0717 140.229 34.1094C140.055 34.1633 139.907 34.2805 139.815 34.4379C139.798 34.474 139.791 34.5141 139.796 34.5538C139.801 34.5934 139.817 34.6309 139.842 34.662C139.867 34.6931 139.9 34.7166 139.937 34.7298C139.975 34.743 140.016 34.7454 140.055 34.7368Z" fill="#263238"/>
<path d="M143.126 34.3262C142.999 34.3021 142.873 34.2714 142.748 34.2342C142.612 34.2191 142.484 34.1603 142.384 34.0667C142.357 34.0312 142.342 33.988 142.342 33.9435C142.342 33.899 142.357 33.8557 142.384 33.8203C142.45 33.7621 142.53 33.7223 142.617 33.705C142.703 33.6877 142.793 33.6935 142.876 33.7218C143.054 33.7548 143.213 33.8519 143.323 33.9944C143.346 34.0279 143.358 34.0672 143.359 34.1076C143.361 34.148 143.35 34.1879 143.33 34.2226C143.309 34.2574 143.279 34.2856 143.243 34.3039C143.207 34.3222 143.166 34.3299 143.126 34.3262Z" fill="#263238"/>
<path d="M140.613 38.1464C140.682 38.2154 140.754 38.3074 140.86 38.3172C140.974 38.3155 141.086 38.2886 141.188 38.2384C141.188 38.2384 141.204 38.2384 141.188 38.2548C141.146 38.3124 141.09 38.3577 141.024 38.3861C140.959 38.4144 140.887 38.4246 140.817 38.4158C140.757 38.4015 140.703 38.3698 140.662 38.3248C140.62 38.2798 140.593 38.2234 140.584 38.1628C140.58 38.1431 140.6 38.1366 140.613 38.1464Z" fill="#263238"/>
<path d="M140.909 37.2694C140.983 37.3829 141.079 37.48 141.192 37.5546C141.305 37.6292 141.432 37.6797 141.566 37.703C141.684 37.721 141.805 37.721 141.924 37.703C141.947 37.7064 141.97 37.7064 141.993 37.703H142.055C142.071 37.7001 142.085 37.6921 142.096 37.6802C142.107 37.6683 142.113 37.6532 142.114 37.6373C142.116 37.6275 142.116 37.6175 142.114 37.6077V37.5814C142.114 37.3548 142.091 37.0132 142.091 37.0132C142.173 37.0526 142.597 37.2365 142.587 37.1183C142.549 36.1037 142.408 35.0957 142.167 34.1094C142.167 34.1024 142.164 34.0957 142.159 34.0908C142.154 34.0859 142.148 34.0831 142.141 34.0831C142.134 34.0831 142.127 34.0859 142.122 34.0908C142.117 34.0957 142.114 34.1024 142.114 34.1094C142.144 35.0455 142.338 35.9719 142.384 36.9146C142.233 36.8468 142.074 36.8004 141.911 36.7766C141.878 36.7766 141.973 37.4336 141.963 37.5387C141.779 37.5599 141.593 37.5438 141.415 37.4913C141.237 37.4388 141.072 37.3511 140.928 37.2332C140.915 37.2267 140.892 37.2464 140.909 37.2694Z" fill="#263238"/>
<path d="M141.802 37.6044C141.68 37.7653 141.52 37.8929 141.336 37.9756C141.231 38.0169 141.117 38.025 141.007 37.9986C140.774 37.9395 140.767 37.726 140.807 37.542C140.83 37.4442 140.864 37.3493 140.909 37.2595C141.162 37.4667 141.475 37.5875 141.802 37.6044Z" fill="#263238"/>
<path d="M141.339 37.9756C141.235 38.0169 141.12 38.025 141.011 37.9986C140.777 37.9395 140.771 37.726 140.81 37.542C140.934 37.5449 141.054 37.5891 141.149 37.6677C141.245 37.7463 141.312 37.8547 141.339 37.9756Z" fill="#FF9BBC"/>
<path d="M137.155 36.1197C137.155 36.1197 136.107 33.5181 136.465 32.1779C136.626 31.5702 137.536 31.291 137.536 31.291C137.511 31.0297 137.559 30.7667 137.675 30.5313C137.791 30.2958 137.97 30.0972 138.193 29.9574C139.037 29.3858 140.784 29.8293 140.784 29.8293C140.784 29.8293 142.203 28.3577 143.721 29.2807C145.238 30.2037 143.879 31.8724 143.879 31.8724C143.879 31.8724 144.338 32.8152 142.772 33.2389C141.205 33.6626 138.455 32.5458 138.455 32.5458C138.426 33.5654 138.246 34.575 137.92 35.5416C137.857 35.6984 137.752 35.8351 137.618 35.937C137.483 36.0388 137.323 36.102 137.155 36.1197Z" fill="#263238"/>
<path d="M141.073 29.8917C140.733 29.686 140.356 29.5508 139.963 29.4942C139.614 29.4367 139.257 29.4367 138.908 29.4942C138.597 29.531 138.301 29.6515 138.052 29.8429C137.803 30.0344 137.611 30.2896 137.496 30.5815C137.446 30.7351 137.428 30.8971 137.442 31.0579C137.456 31.2187 137.502 31.3751 137.578 31.5177C137.578 31.5177 137.601 31.5177 137.594 31.5177C137.295 30.9888 137.594 30.299 138.061 29.9738C138.604 29.6384 139.251 29.5123 139.881 29.619C140.284 29.6804 140.679 29.7907 141.057 29.9475C141.06 29.9486 141.064 29.9489 141.068 29.9485C141.072 29.9481 141.075 29.947 141.079 29.9451C141.082 29.9433 141.085 29.9408 141.087 29.9379C141.09 29.9349 141.092 29.9315 141.093 29.9278C141.094 29.9241 141.094 29.9203 141.094 29.9165C141.093 29.9127 141.092 29.909 141.09 29.9057C141.088 29.9023 141.086 29.8993 141.083 29.8969C141.08 29.8945 141.077 29.8927 141.073 29.8917Z" fill="#263238"/>
<path d="M144.765 30.2464C144.726 30.0186 144.63 29.8041 144.488 29.6224C144.345 29.4406 144.159 29.2972 143.947 29.2051C143.468 28.9671 142.923 28.8977 142.4 29.008C141.874 29.1203 141.387 29.3709 140.991 29.734C140.991 29.757 140.991 29.734 140.991 29.734C141.346 29.415 141.782 29.1978 142.251 29.1053C142.719 29.0128 143.204 29.0484 143.655 29.2084C143.864 29.2648 144.057 29.3722 144.215 29.5212C144.373 29.6701 144.491 29.8558 144.56 30.0618C144.629 30.2678 144.645 30.4875 144.608 30.7015C144.571 30.9154 144.482 31.1168 144.348 31.2877C144.033 31.6885 143.612 31.9925 143.132 32.1648C143.132 32.1648 143.132 32.1878 143.132 32.1812C143.581 32.0454 143.989 31.7992 144.318 31.4651C144.475 31.3053 144.596 31.114 144.673 30.9039C144.75 30.6937 144.781 30.4696 144.765 30.2464Z" fill="#263238"/>
<path d="M138.146 36.008C138.146 36.008 137.332 34.5331 136.671 34.8123C136.011 35.0915 136.524 37.1544 137.226 37.5059C137.314 37.5566 137.41 37.5893 137.511 37.6019C137.611 37.6145 137.713 37.6067 137.81 37.5791C137.907 37.5515 137.998 37.5047 138.076 37.4413C138.155 37.3779 138.22 37.2993 138.268 37.2103L138.146 36.008Z" fill="#C95F50"/>
<path d="M136.832 35.3937C136.832 35.3937 136.832 35.3937 136.832 35.4134C137.055 35.5549 137.246 35.7418 137.392 35.962C137.538 36.1821 137.636 36.4306 137.68 36.6912C137.655 36.6371 137.619 36.5888 137.574 36.5497C137.53 36.5107 137.477 36.4817 137.42 36.4649C137.363 36.4481 137.303 36.4437 137.244 36.4522C137.185 36.4606 137.129 36.4817 137.079 36.5139C137.079 36.5139 137.079 36.5467 137.079 36.5434C137.172 36.5241 137.27 36.5343 137.357 36.5725C137.445 36.6108 137.519 36.6752 137.568 36.7569C137.647 36.8951 137.713 37.0402 137.765 37.1905C137.785 37.2398 137.87 37.2234 137.857 37.1675C137.939 36.5106 137.529 35.5416 136.832 35.3937Z" fill="#263238"/>
<path d="M134.017 43.0901C129.366 48.3129 125.868 55.6677 125.901 57.402C125.947 59.3072 128.371 66.0181 130.68 69.1715C130.979 69.5756 132.779 69.4048 134.293 68.5671C135.9 67.6835 137.217 66.1068 136.901 65.6371C135.716 63.8731 132.907 57.0407 132.933 55.9731C132.956 54.9877 135.259 48.9371 136.136 45.4387C136.993 42.0718 136.182 40.6495 134.017 43.0901Z" fill="#C95F50"/>
<path d="M127.871 68.6493L136.533 64.4184C136.533 64.4184 133.127 56.8173 133.127 55.9961C133.127 55.1749 135.367 48.7498 136.212 45.7803C137.056 42.8109 136.73 39.4735 133.032 43.9638C129.333 48.4542 126.101 55.1322 125.733 56.906C125.365 58.6798 127.871 68.6493 127.871 68.6493Z" fill="#9232E6"/>
<path d="M133.561 53.815C133.738 53.2522 133.922 52.6905 134.113 52.1299C134.326 51.5025 134.546 50.8784 134.77 50.2576C134.993 49.6367 135.246 49.0586 135.489 48.4608C135.489 48.4181 135.581 48.4608 135.568 48.4903C135.279 49.2885 135.009 50.0966 134.74 50.9047C134.944 50.5368 135.147 50.1721 135.364 49.8108C135.369 49.8066 135.374 49.804 135.381 49.8032C135.387 49.8024 135.393 49.8036 135.398 49.8064C135.404 49.8093 135.408 49.8138 135.411 49.8193C135.413 49.8248 135.414 49.831 135.414 49.8371C135.17 50.2838 134.914 50.7207 134.655 51.151C134.592 51.3448 134.527 51.5419 134.461 51.7357C134.096 52.8197 133.748 53.9103 133.436 55.0205C133.359 55.2663 133.307 55.5195 133.282 55.776C133.268 56.0685 133.312 56.3608 133.41 56.6367C133.567 57.1458 133.738 57.6484 133.922 58.1477C134.284 59.1561 134.678 60.1481 135.088 61.1336C135.558 62.257 136.093 63.364 136.626 64.4578C136.626 64.4578 136.297 64.5432 136.297 64.5498C136.297 64.5564 136.271 64.5498 136.277 64.5334C136.284 64.517 136.481 64.425 136.488 64.425C135.946 63.479 135.43 62.5493 134.973 61.554C134.517 60.5587 134.119 59.5832 133.755 58.5517C133.567 58.0261 133.387 57.5006 133.223 56.9684C133.036 56.4751 132.985 55.941 133.075 55.4213C133.196 54.876 133.393 54.3439 133.561 53.815Z" fill="#263238"/>
<path d="M127.724 66.2086C128.031 66.0426 128.346 65.8935 128.67 65.7619C128.952 65.6305 129.231 65.4958 129.517 65.3677C130.135 65.0885 130.752 64.806 131.373 64.5301C131.994 64.2542 132.611 63.975 133.232 63.7056C133.853 63.4362 134.464 63.1472 135.095 62.914C135.118 62.914 135.134 62.9402 135.114 62.9534C134.54 63.3081 133.925 63.6103 133.321 63.9027C132.717 64.195 132.122 64.4775 131.514 64.7502C130.907 65.0228 130.269 65.2889 129.642 65.5418C129.34 65.6633 129.034 65.775 128.725 65.89C128.405 66.0284 128.076 66.1459 127.74 66.2415C127.736 66.2418 127.732 66.241 127.729 66.2391C127.725 66.2371 127.722 66.2342 127.721 66.2307C127.719 66.2271 127.718 66.2231 127.719 66.2192C127.719 66.2153 127.721 66.2116 127.724 66.2086Z" fill="#263238"/>
</svg>
