<svg width="36" height="36" viewBox="0 0 36 36" fill="none" xmlns="http://www.w3.org/2000/svg">
<rect width="36" height="36" rx="18" fill="white"/>
<path d="M21 9C23.2091 9 25 10.7909 25 13C25 13.729 24.8049 14.4125 24.4642 15.0011L29 15V17H27V27C27 27.5523 26.5523 28 26 28H10C9.44772 28 9 27.5523 9 27V17H7V15L11.5358 15.0011C11.195 14.4125 11 13.729 11 13C11 10.7909 12.7909 9 15 9C16.1952 9 17.268 9.52421 18.0009 10.3553C18.732 9.52421 19.8048 9 21 9ZM17 17H11V26H17V17ZM25 17H19V26H25V17ZM15 11C13.8954 11 13 11.8954 13 13C13 14.0544 13.8159 14.9182 14.8507 14.9945L15 15H17V13C17 11.9984 16.2637 11.1687 15.3028 11.0228L15.1493 11.0055L15 11ZM21 11C19.9456 11 19.0818 11.8159 19.0055 12.8507L19 13V15H21C22.0543 15 22.9181 14.1841 22.9945 13.1493L23 13C23 11.8954 22.1046 11 21 11Z" fill="#9232E6"/>
</svg>
