<svg width="36" height="36" viewBox="0 0 36 36" fill="none" xmlns="http://www.w3.org/2000/svg">
<rect width="36" height="36" rx="18" fill="#F5F5F5"/>
<path d="M13 8C15.6893 8 18.0244 9.51653 19.1967 11.741C20.374 10.0825 22.3105 9 24.4999 9H27.9999V11.5C27.9999 15.0898 25.0899 18 21.5 18H20V19H24.9999V26C24.9999 27.1046 24.1046 28 23 28H15C13.8954 28 13 27.1046 13 26V19H18V17H16C12.134 17 9 13.866 9 10V8H13ZM23 21H15V26H23V21ZM25.9999 11H24.4999C22.0147 11 20 13.0147 20 15.5V16H21.5C23.9853 16 25.9999 13.9853 25.9999 11.5V11ZM13 10H11C11 12.7614 13.2386 15 16 15H18C18 12.2386 15.7614 10 13 10Z" fill="#9232E6"/>
</svg>
