<svg width="28" height="29" viewBox="0 0 28 29" fill="none" xmlns="http://www.w3.org/2000/svg">
<path d="M14.0584 28.4038C6.46459 28.4402 0.279062 22.3138 0.242663 14.7199C0.206265 7.1261 6.33278 0.940586 13.9266 0.904187C21.5204 0.867789 27.706 6.99429 27.7424 14.5881C27.7788 22.182 21.6522 28.3674 14.0584 28.4038ZM14.0453 25.6539C20.1203 25.6247 25.0215 20.6764 24.9924 14.6013C24.9633 8.52624 20.0149 3.62504 13.9398 3.65416C7.86472 3.68328 2.96351 8.63169 2.99263 14.7067C3.02175 20.7818 7.97016 25.683 14.0453 25.6539ZM7.09781 10.562L11.1997 5.72981L15.3477 10.5225L12.5978 10.5357L12.6241 16.0356L9.87414 16.0487L9.84778 10.5488L7.09781 10.562ZM20.8872 18.746L16.7853 23.5782L12.6373 18.7855L15.3873 18.7724L15.3609 13.2724L18.1109 13.2592L18.1373 18.7592L20.8872 18.746Z" fill="#9232E6"/>
</svg>
