<svg width="235" height="235" viewBox="0 0 235 235" fill="none" xmlns="http://www.w3.org/2000/svg">
<g clip-path="url(#clip0_37_147)">
<path d="M153.563 29.4809C157.376 27.9003 161.748 29.71 163.328 33.5228L209.135 144.027C210.705 147.815 208.835 152.189 205.131 153.724L80.7516 205.283C76.9701 206.85 72.6313 205.05 71.0617 201.263L68.181 194.314L192.447 142.802L158.965 62.0285L124.34 134.629L29.547 101.114L25.2544 90.7583C23.6739 86.9456 25.4835 82.5734 29.2963 80.9929L153.563 29.4809ZM98.156 149.528L103.88 163.336L48.6501 186.23L42.9265 172.422L98.156 149.528ZM63.1361 123.595L68.8596 137.403L34.3412 151.711L28.6176 137.904L63.1361 123.595ZM149.386 47.3923L44.9207 90.6961L116.64 116.054L149.386 47.3923Z" fill="#9232E6"/>
</g>
<defs>
<clipPath id="clip0_37_147">
<rect width="179.36" height="179.36" fill="white" transform="translate(0 68.8671) rotate(-22.5154)"/>
</clipPath>
</defs>
</svg>
