<svg width="36" height="36" viewBox="0 0 36 36" fill="none" xmlns="http://www.w3.org/2000/svg">
<rect width="36" height="36" rx="18" fill="#F5F5F5"/>
<path d="M18 18.5858L22.2426 22.8284L20.8284 24.2426L19 22.415V28H17V22.413L15.1716 24.2426L13.7574 22.8284L18 18.5858ZM18 8C21.5934 8 24.5544 10.7076 24.9541 14.1939C27.2858 14.8315 29 16.9656 29 19.5C29 22.3688 26.8036 24.7246 24.0006 24.9776L24.0009 22.9644C25.6966 22.7214 27 21.2629 27 19.5C27 17.567 25.433 16 23.5 16C23.2912 16 23.0867 16.0183 22.8887 16.054C22.9616 15.7142 23 15.3616 23 15C23 12.2386 20.7614 10 18 10C15.2386 10 13 12.2386 13 15C13 15.3616 13.0384 15.7142 13.1121 16.0533C12.9133 16.0183 12.7088 16 12.5 16C10.567 16 9 17.567 9 19.5C9 21.2003 10.2124 22.6174 11.8199 22.934L12.0001 22.9646L12.0004 24.9776C9.19696 24.7252 7 22.3692 7 19.5C7 16.9656 8.71424 14.8315 11.0465 14.1941C11.4456 10.7076 14.4066 8 18 8Z" fill="#9232E6"/>
</svg>
